<?xml version="1.0" encoding="UTF-8"?>
<svg id="Layer_1" data-name="Layer 1" xmlns="http://www.w3.org/2000/svg" xmlns:xlink="http://www.w3.org/1999/xlink" viewBox="0 0 382.78 404.3">
  <defs>
    <style>
      .cls-1 {
        clip-path: url(#clippath);
      }

      .cls-2 {
        fill: none;
      }

      .cls-2, .cls-3, .cls-4, .cls-5, .cls-6 {
        stroke-width: 0px;
      }

      .cls-3 {
        fill: #97d0dc;
      }

      .cls-4 {
        fill: #ff9994;
      }

      .cls-5 {
        fill: #000;
      }

      .cls-6 {
        fill: #43aac2;
      }
    </style>
    <clipPath id="clippath">
      <rect class="cls-2" y=".29" width="382.75" height="404"/>
    </clipPath>
  </defs>
  <g class="cls-1">
    <g id="_그룹_166" data-name="그룹 166">
      <path id="_패스_572" data-name="패스 572" class="cls-3" d="M78.6,43.48h139.39s-8.44,96.24-91.89,138.9l-30.51-19.31s-39.79-52.88-48.7-81.95c-8.91-29.07-8.9-37.64-8.9-37.64h40.61Z"/>
      <path id="_패스_573" data-name="패스 573" class="cls-3" d="M164.66,217.73l-38.52-35.34s-59.11,53.92-69.9,77.35c-8.16,20.48-14.43,41.67-18.74,63.29l-3.75,71.73h184.24s-3.67-58.21-5.62-82.53c-3.02-37.33-47.72-94.53-47.72-94.53"/>
      <path id="_패스_574" data-name="패스 574" class="cls-3" d="M378.34,195.39c0,34.38-27.87,62.25-62.25,62.25-34.38,0-62.25-27.87-62.25-62.25s27.87-62.25,62.25-62.25c34.38,0,62.26,27.87,62.26,62.25h0"/>
      <path id="_패스_575" data-name="패스 575" class="cls-5" d="M382.52,177.58c1.06,3.93-1.26,7.97-5.18,9.03-3.93,1.06-7.97-1.26-9.03-5.18-6.31-23.56-27.61-39.99-52-40.1-.12,0-.12.1-.22.1l-.12-.1c-29.84.11-53.95,24.39-53.84,54.23s24.39,53.95,54.23,53.84c12.29-.04,24.2-4.28,33.76-12,3.13-2.57,7.75-2.12,10.33,1.01.02.03.05.06.07.08,2.53,3.1,2.08,7.66-1.02,10.19-.02.02-.05.04-.07.06-29.28,23.89-72.39,19.53-96.28-9.75-.1-.13-.21-.26-.31-.39l-53.49,36.32c7.11,16.91,12.07,34.64,14.76,52.78.13.4.2.81.22,1.22v.22c1.62,11.17,2.47,22.43,2.54,33.72-.05,8.91-.6,17.81-1.65,26.65h27.98c4.08.12,7.29,3.52,7.17,7.59-.11,3.91-3.26,7.06-7.17,7.17H7.27c-4.08-.12-7.29-3.52-7.17-7.59.11-3.91,3.26-7.06,7.17-7.17h19.5c-1.05-8.85-1.6-17.75-1.65-26.65.01-11.32.86-22.63,2.54-33.83v-.12c0-.22.12-.44.12-.66,3.57-24.23,11.09-47.71,22.25-69.51,0-.12.12-.22.22-.34,16.3-32.27,41.19-59.42,71.94-78.45,44.63-27.1,75.58-74.58,86.05-129.12h-86.38c-4.08-.12-7.29-3.52-7.17-7.59.11-3.91,3.26-7.06,7.17-7.17h88.68c1.11-8.81,1.66-17.67,1.65-26.55,0-4.05,3.28-7.34,7.34-7.34s7.34,3.28,7.34,7.34c0,11.32-.85,22.63-2.54,33.83v.1c0,.22-.1.44-.1.66-9.38,62.58-43.76,117.56-94.43,148.41-24.87,15.31-45.63,36.45-60.49,61.59h82.74c4.05,0,7.34,3.28,7.34,7.34s-3.28,7.34-7.34,7.34H61.37c-8.17,16.74-14.1,34.49-17.63,52.78h31.51c4.08.12,7.29,3.52,7.17,7.59-.11,3.91-3.26,7.06-7.17,7.17h-33.83c-2.24,17.66-2.2,35.54.1,53.19h168.9c1.14-8.84,1.73-17.74,1.76-26.65-.09-8.88-.67-17.74-1.76-26.55h-92.55c-4.08-.12-7.29-3.52-7.17-7.59.11-3.91,3.26-7.06,7.17-7.17h90.23c-5.55-30.19-17.91-58.71-36.14-83.4-2.64-3.42-5.28-6.72-8.15-10.03-2.57-3.17-2.08-7.82,1.09-10.39,3.05-2.47,7.51-2.12,10.14.8,11.09,13.08,20.53,27.48,28.12,42.86l51.56-35.15c-17.1-33.8-3.56-75.06,30.24-92.16,7.43-3.76,15.47-6.13,23.75-7.01v-13.22c-31.31-4.08-53.39-32.77-49.31-64.08,4.08-31.31,32.77-53.39,64.08-49.31,31.31,4.08,53.39,32.77,49.31,64.08-3.35,25.72-23.59,45.96-49.31,49.31v13.45c28.16,2.97,51.6,22.94,59.02,50.26M358.5,57.47c0-23.43-18.99-42.42-42.42-42.42-23.43,0-42.42,18.99-42.42,42.42s18.98,42.41,42.4,42.42c23.42,0,42.41-18.99,42.42-42.41"/>
      <path id="_패스_576" data-name="패스 576" class="cls-5" d="M349.36,181.52c5.59,2.42,9.31,7.8,9.59,13.88-.27,6.06-4,11.42-9.59,13.77,3.39,7.36.18,16.07-7.18,19.47-3.87,1.79-8.33,1.8-12.21.03-2.46,5.55-7.82,9.25-13.88,9.58-6.04-.32-11.37-4.03-13.77-9.58-7.38,3.39-16.12.15-19.5-7.24-1.79-3.89-1.79-8.37,0-12.26-5.59-2.36-9.32-7.72-9.59-13.77.28-6.08,4-11.47,9.59-13.88-3.39-7.34-.2-16.03,7.14-19.43,3.92-1.81,8.45-1.8,12.36.03,2.35-5.59,7.71-9.32,13.77-9.58,6.07.28,11.45,4,13.86,9.59,5.59-2.27,11.98-1.11,16.41,2.98,4.04,4.46,5.2,10.82,2.98,16.41M343.72,195.41c-1.82-1.37-3.87-2.41-6.06-3.06-1.95-.68-3.51-2.16-4.28-4.07-.85-1.9-.81-4.08.1-5.95,1.04-2,1.75-4.16,2.1-6.39-2.23.35-4.38,1.06-6.39,2.1-1.87.92-4.05.96-5.95.1-1.92-.77-3.41-2.33-4.08-4.28-.65-2.19-1.68-4.24-3.06-6.06-1.33,1.85-2.36,3.89-3.06,6.06-.64,1.97-2.14,3.54-4.07,4.28-1.9.85-4.08.81-5.95-.1-2.01-1.04-4.16-1.74-6.39-2.1.36,2.23,1.07,4.38,2.1,6.39.92,1.87.96,4.05.12,5.95-.77,1.91-2.33,3.39-4.28,4.07-2.18.65-4.24,1.68-6.05,3.06,1.84,1.33,3.89,2.36,6.05,3.06,1.97.64,3.54,2.14,4.28,4.07.84,1.9.8,4.08-.12,5.95-1.03,2.01-1.74,4.16-2.1,6.39,2.23-.35,4.39-1.06,6.39-2.1.94-.51,1.99-.77,3.06-.77.98.01,1.95.2,2.86.55,1.92.82,3.4,2.43,4.07,4.41.66,2.15,1.7,4.16,3.06,5.95,1.41-1.76,2.45-3.78,3.06-5.95.7-1.96,2.18-3.56,4.08-4.41,1.93-.76,4.08-.68,5.95.22,2,1.04,4.16,1.74,6.39,2.1-.35-2.23-1.06-4.39-2.1-6.39-.91-1.87-.95-4.05-.1-5.95.74-1.93,2.31-3.43,4.28-4.07,2.17-.69,4.21-1.73,6.06-3.06"/>
      <path id="_패스_577" data-name="패스 577" class="cls-5" d="M348.91,389.52c4.08.12,7.29,3.52,7.17,7.59-.11,3.91-3.26,7.06-7.17,7.17h-11.79c-4.08-.12-7.29-3.52-7.17-7.59.11-3.91,3.26-7.06,7.17-7.17h11.79Z"/>
      <path id="_패스_578" data-name="패스 578" class="cls-6" d="M316.08,15.06c23.42,0,42.4,19,42.4,42.42,0,23.42-19,42.4-42.42,42.4-23.42,0-42.4-18.99-42.4-42.41.01-23.42,19-42.41,42.42-42.41M347.37,57.47c0-4.08-3.3-7.38-7.37-7.39,0,0,0,0,0,0h-10.69c-4.08,0-7.38,3.3-7.38,7.38,0,4.08,3.3,7.38,7.38,7.38h10.7c4.08,0,7.38-3.3,7.38-7.38h0M323.46,81.37v-10.68c-.12-4.08-3.52-7.29-7.59-7.17-3.91.11-7.06,3.26-7.17,7.17v10.69c.12,4.08,3.52,7.29,7.59,7.17,3.91-.11,7.06-3.26,7.17-7.17M323.46,44.25v-10.68c-.12-4.08-3.52-7.29-7.59-7.17-3.91.11-7.06,3.26-7.17,7.17v10.67c.12,4.08,3.52,7.29,7.59,7.17,3.91-.11,7.06-3.26,7.17-7.17M310.24,57.47c0-4.08-3.3-7.38-7.37-7.39h-10.69c-4.08,0-7.38,3.3-7.38,7.38,0,4.08,3.3,7.38,7.38,7.38h10.7c4.08,0,7.38-3.3,7.38-7.38h0"/>
      <path id="_패스_579" data-name="패스 579" class="cls-5" d="M339.99,50.09c4.08.12,7.29,3.52,7.17,7.59-.11,3.91-3.26,7.06-7.17,7.17h-10.69c-4.08.12-7.48-3.09-7.59-7.17-.12-4.08,3.09-7.48,7.17-7.59.14,0,.28,0,.42,0h10.69Z"/>
      <path id="_패스_580" data-name="패스 580" class="cls-4" d="M337.68,192.32c2.19.65,4.24,1.68,6.06,3.06-1.85,1.33-3.89,2.36-6.06,3.06-1.97.64-3.54,2.15-4.28,4.08-.85,1.9-.81,4.08.1,5.95,1.04,2,1.74,4.16,2.1,6.39-2.23-.35-4.38-1.06-6.39-2.1-1.87-.9-4.02-.98-5.95-.22-1.9.85-3.38,2.44-4.08,4.41-.61,2.17-1.65,4.19-3.06,5.95-1.37-1.78-2.4-3.8-3.06-5.95-.69-1.97-2.19-3.55-4.12-4.35-.92-.35-1.89-.54-2.87-.55-1.07,0-2.12.26-3.06.77-2,1.04-4.16,1.74-6.39,2.1.36-2.23,1.07-4.38,2.1-6.39.92-1.87.95-4.05.1-5.95-.73-1.94-2.31-3.44-4.28-4.08-2.17-.7-4.21-1.73-6.06-3.06,1.82-1.37,3.87-2.41,6.06-3.06,1.95-.67,3.51-2.16,4.28-4.07.85-1.9.81-4.08-.1-5.95-1.03-2.01-1.74-4.16-2.1-6.39,2.23.36,4.38,1.07,6.39,2.1,1.87.92,4.05.96,5.95.12,1.93-.74,3.43-2.31,4.07-4.28.7-2.17,1.73-4.21,3.06-6.06,1.37,1.82,2.41,3.87,3.06,6.06.68,1.95,2.17,3.51,4.08,4.28,1.9.84,4.08.8,5.95-.12,2.01-1.03,4.16-1.74,6.39-2.1-.35,2.23-1.06,4.38-2.1,6.39-.92,1.87-.95,4.05-.1,5.95.77,1.91,2.33,3.4,4.28,4.07"/>
      <path id="_패스_581" data-name="패스 581" class="cls-5" d="M323.47,70.7v10.68c-.12,4.08-3.52,7.29-7.59,7.17-3.91-.11-7.06-3.26-7.17-7.17v-10.68c.12-4.08,3.52-7.29,7.59-7.17,3.91.11,7.06,3.26,7.17,7.17"/>
      <path id="_패스_582" data-name="패스 582" class="cls-5" d="M323.47,33.57v10.68c.12,4.08-3.09,7.48-7.17,7.59-4.08.12-7.48-3.09-7.59-7.17,0-.14,0-.28,0-.42v-10.68c.12-4.08,3.52-7.29,7.59-7.17,3.91.11,7.06,3.26,7.17,7.17"/>
      <path id="_패스_583" data-name="패스 583" class="cls-5" d="M303.52,389.52c4.08.12,7.29,3.52,7.17,7.59-.11,3.91-3.26,7.06-7.17,7.17h-16.74c-4.08.12-7.48-3.09-7.59-7.17-.12-4.08,3.09-7.48,7.17-7.59.14,0,.28,0,.42,0h16.74Z"/>
      <path id="_패스_584" data-name="패스 584" class="cls-5" d="M302.86,50.09c4.08.12,7.29,3.52,7.17,7.59-.11,3.91-3.26,7.06-7.17,7.17h-10.69c-4.08.12-7.48-3.09-7.59-7.17-.12-4.08,3.09-7.48,7.17-7.59.14,0,.28,0,.42,0h10.69Z"/>
      <path id="_패스_585" data-name="패스 585" class="cls-5" d="M153.79,103.63c4.05,0,7.34,3.28,7.34,7.33,0,4.05-3.28,7.34-7.33,7.34h-84.18c7.34,12.44,16.1,23.97,26.11,34.38,2.84,2.93,2.79,7.6-.12,10.46-1.41,1.29-3.26,2-5.18,1.99-1.99.03-3.91-.77-5.28-2.21-13.71-14.23-25.29-30.37-34.37-47.92-.32-.48-.58-.99-.78-1.53-10.77-21.08-18.09-43.74-21.69-67.13-.44-.89-.67-1.87-.67-2.86.03-.19.07-.37.12-.55-1.66-11.05-2.55-22.21-2.65-33.38,0-4.05,3.28-7.34,7.34-7.34s7.34,3.28,7.34,7.34c.07,8.88.69,17.75,1.87,26.55h29.66c4.08,0,7.38,3.31,7.38,7.38,0,4.07-3.3,7.38-7.38,7.38h-27.47c3.52,18.29,9.45,36.04,17.63,52.78h92.33Z"/>
    </g>
  </g>
</svg>