<?xml version="1.0" encoding="UTF-8"?>
<svg id="Layer_1" data-name="Layer 1" xmlns="http://www.w3.org/2000/svg" xmlns:xlink="http://www.w3.org/1999/xlink" viewBox="0 0 413.14 389.13">
  <defs>
    <style>
      .cls-1 {
        clip-path: url(#clippath);
      }

      .cls-2 {
        fill: none;
      }

      .cls-2, .cls-3, .cls-4, .cls-5 {
        stroke-width: 0px;
      }

      .cls-3 {
        fill: #97d0dc;
      }

      .cls-4 {
        fill: #000;
      }

      .cls-5 {
        fill: #ff9989;
      }
    </style>
    <clipPath id="clippath">
      <rect class="cls-2" x="0" y="0" width="413.13" height="389.1"/>
    </clipPath>
  </defs>
  <g class="cls-1">
    <g id="_그룹_162" data-name="그룹 162">
      <path id="_패스_546" data-name="패스 546" class="cls-4" d="M410.87,181.36c2.77,2.56,3.04,6.84.6,9.72-2.51,2.78-6.77,3.05-9.61.6l-.73-.6v6.44c-.02.31-.09.62-.2.92-2.1,107.4-90.87,192.75-198.26,190.65-58.86-1.15-114.03-28.9-150.05-75.47-2.24-3.02-1.61-7.29,1.41-9.53,2.92-2.17,7.02-1.66,9.33,1.15,4.25,5.58,8.86,10.88,13.81,15.85,33.95,34.96,80.66,54.6,129.39,54.4,99.85-.08,180.8-80.97,180.96-180.82v-3.58l-.7.6c-2.9,2.43-7.22,2.04-9.65-.86-2.36-2.82-2.07-7,.65-9.47l12.06-10.44c.5-.42,1.05-.77,1.65-1.03.32-.2.62-.1.93-.2.61-.12,1.23-.19,1.85-.2.65.01,1.3.08,1.93.2.3.1.62,0,.92.2.59.28,1.14.63,1.65,1.03l12.05,10.45Z"/>
      <path id="_패스_547" data-name="패스 547" class="cls-4" d="M360.53,75.49c2.27,3.01,1.72,7.28-1.23,9.62-1.21.91-2.68,1.41-4.19,1.43-2.12,0-4.13-.98-5.42-2.67C288.58,4.82,174.97-9.73,95.91,51.37,51.58,85.64,25.62,138.52,25.64,194.55v3.48l.71-.52c2.75-2.49,7-2.28,9.49.47.04.05.08.09.12.14,2.46,2.84,2.15,7.14-.69,9.6,0,0-.02.01-.02.02l-11.97,10.44c-.51.43-1.06.8-1.65,1.1h-.2c-.83.41-1.74.62-2.66.62-.89,0-1.77-.21-2.56-.62h-.19c-.62-.3-1.2-.67-1.74-1.1l-11.97-10.44c-2.82-2.48-3.11-6.78-.63-9.6,0,0,0-.01.01-.02,2.41-2.82,6.65-3.15,9.47-.75.05.04.1.09.15.13l.72.52v-6.34c0-.35.07-.7.2-1.03C14.36,83.27,103.13-2.08,210.53.04c58.84,1.16,113.99,28.9,150,75.45"/>
      <path id="_패스_548" data-name="패스 548" class="cls-4" d="M346.62,186.27c.2,2.75.3,5.49.3,8.29-.08,77.47-62.87,140.26-140.34,140.34-15.44-.01-30.78-2.53-45.42-7.47-3.55-1.26-5.46-5.11-4.3-8.7.76-2.03,2.36-3.64,4.4-4.4,1.4-.43,2.91-.39,4.29.1,66.11,22.7,138.1-12.48,160.8-78.59,4.56-13.29,6.88-27.24,6.86-41.29-.02-4.99-.29-9.97-.82-14.93-.32-3.74,2.45-7.03,6.19-7.35,3.59-.31,6.8,2.24,7.31,5.81.3,2.67.62,5.42.71,8.19"/>
      <path id="_패스_549" data-name="패스 549" class="cls-4" d="M324.85,133.79c4.44,4.9,4.06,12.47-.84,16.91-.06.06-.12.11-.19.17l-14.84,14.84c-2.09,2.13-4.82,3.53-7.77,3.99-.62,0-1.13.1-1.65.1-2.83.03-5.56-1.07-7.57-3.07l-1.93-1.95-139.23,139.12-.92.92c-12.73,12.8-32.74,14.82-47.77,4.81-2.08-1.43-4.02-3.04-5.82-4.81-14.8-14.7-14.89-38.61-.19-53.41.06-.06.13-.13.19-.19L236.35,111.18l-1.93-2.04c-2.37-2.44-3.44-5.85-2.87-9.2.38-2.96,1.75-5.7,3.89-7.78l14.94-14.84c4.27-4.96,11.76-5.52,16.72-1.25.09.08.17.15.26.23l57.5,57.48ZM299.9,155.37l13.68-13.62-54.21-54.22-13.6,13.6,54.13,54.24ZM280.34,155.17l-34.27-34.37-140.14,140.03c-9.36,9.62-9.16,25,.46,34.37,9.43,9.19,24.47,9.19,33.91,0l140.04-140.03Z"/>
      <path id="_패스_550" data-name="패스 550" class="cls-5" d="M313.58,141.77l-13.74,13.6-54.11-54.21,13.61-13.6,54.24,54.21Z"/>
      <path id="_패스_551" data-name="패스 551" class="cls-3" d="M246.07,120.81l34.27,34.37-140.04,140.03c-9.49,9.49-24.88,9.49-34.37,0-9.49-9.49-9.49-24.88,0-34.37L246.07,120.81Z"/>
      <path id="_패스_552" data-name="패스 552" class="cls-4" d="M224.62,55.44c3.71.5,6.32,3.91,5.82,7.62-.45,3.37-3.33,5.88-6.73,5.88h-.82c-3.37-.41-6.85-.71-10.33-.92-3.76-.1-6.73-3.22-6.64-6.99s3.22-6.73,6.99-6.64c.09,0,.18,0,.26.01,3.88.2,7.69.52,11.45,1.03"/>
      <path id="_패스_553" data-name="패스 553" class="cls-4" d="M176.72,64.23c1.02,3.61-1.08,7.36-4.69,8.37-.01,0-.03,0-.04.01-6.54,1.91-12.93,4.3-19.12,7.14-.88.48-1.86.73-2.86.72-2.68,0-5.12-1.56-6.24-3.99-1.59-3.36-.15-7.37,3.21-8.96.03-.01.06-.03.09-.04,6.82-3.24,13.91-5.91,21.17-7.98,3.64-1.01,7.42,1.08,8.49,4.71"/>
      <path id="_패스_554" data-name="패스 554" class="cls-4" d="M119.44,93.18c2.6,2.63,2.58,6.87-.05,9.47-.05.05-.1.1-.15.14-4.93,4.71-9.48,9.81-13.6,15.24-1.3,1.68-3.3,2.66-5.42,2.66-1.5.02-2.97-.45-4.19-1.33-2.99-2.29-3.56-6.58-1.27-9.57.01-.02.02-.03.04-.05,4.55-5.99,9.58-11.6,15.04-16.78,2.63-2.6,6.87-2.58,9.47.05.05.05.1.1.14.15"/>
      <path id="_패스_555" data-name="패스 555" class="cls-4" d="M82.2,145.35c3.59,1.22,5.51,5.11,4.3,8.7-2.15,6.48-3.8,13.11-4.91,19.84-.58,3.27-3.43,5.65-6.75,5.63-.37.01-.74-.02-1.1-.1-3.71-.58-6.26-4.06-5.68-7.78,1.22-7.47,3.07-14.82,5.53-21.98,1.15-3.54,4.96-5.48,8.5-4.33.03.01.06.02.09.03"/>
      <path id="_패스_556" data-name="패스 556" class="cls-4" d="M83.53,224.83c.91,3.66-1.32,7.37-4.98,8.28-.01,0-.02,0-.03,0-.54.12-1.09.19-1.65.2-3.13-.02-5.83-2.18-6.54-5.22-.93-3.68-1.74-7.47-2.35-11.25-.54-3.74,2.05-7.2,5.79-7.74,3.66-.53,7.08,1.95,7.71,5.6.51,3.37,1.22,6.85,2.04,10.12"/>
    </g>
  </g>
</svg>