<?xml version="1.0" encoding="UTF-8"?>
<svg id="Layer_1" data-name="Layer 1" xmlns="http://www.w3.org/2000/svg" xmlns:xlink="http://www.w3.org/1999/xlink" viewBox="0 0 396.96 334.33">
  <defs>
    <style>
      .cls-1 {
        clip-path: url(#clippath);
      }

      .cls-2 {
        fill: none;
      }

      .cls-2, .cls-3 {
        stroke-width: 0px;
      }

      .cls-3 {
        fill: #707070;
      }
    </style>
    <clipPath id="clippath">
      <rect class="cls-2" x="0" width="396.95" height="334.33"/>
    </clipPath>
  </defs>
  <g class="cls-1">
    <g id="_그룹_99" data-name="그룹 99">
      <path id="_패스_483" data-name="패스 483" class="cls-3" d="M71.77,79.75h0c-1.88,0-3.67-.79-4.93-2.19l-12.01-13.23c-2.47-2.72-2.27-6.93.46-9.41,2.72-2.47,6.93-2.27,9.41.46h0l7.08,7.8,14.1-15.54c2.47-2.72,6.69-2.93,9.41-.45,2.72,2.47,2.93,6.69.45,9.41l-19.03,20.98c-1.26,1.39-3.05,2.18-4.93,2.18"/>
      <path id="_패스_484" data-name="패스 484" class="cls-3" d="M205.01,74.79h-87.27c-3.68,0-6.66-2.98-6.66-6.66s2.98-6.66,6.66-6.66h87.27c3.68,0,6.66,2.98,6.66,6.66s-2.98,6.66-6.66,6.66"/>
      <path id="_패스_485" data-name="패스 485" class="cls-3" d="M71.77,155.13h0c-1.88,0-3.67-.79-4.93-2.19l-12.01-13.23c-2.47-2.72-2.27-6.93.46-9.41s6.93-2.27,9.41.46h0l7.08,7.79,14.1-15.56c2.47-2.72,6.69-2.93,9.41-.45,2.72,2.47,2.93,6.69.45,9.41l-19.03,20.99c-1.26,1.39-3.05,2.19-4.93,2.19"/>
      <path id="_패스_486" data-name="패스 486" class="cls-3" d="M205.01,150.17h-87.27c-3.68,0-6.66-2.98-6.66-6.66s2.98-6.66,6.66-6.66h87.27c3.68,0,6.66,2.98,6.66,6.66s-2.98,6.66-6.66,6.66"/>
      <path id="_패스_487" data-name="패스 487" class="cls-3" d="M71.77,230.52h0c-1.88,0-3.67-.79-4.93-2.19l-12.01-13.23c-2.47-2.72-2.27-6.93.46-9.4,2.72-2.47,6.93-2.27,9.41.46h0l7.08,7.8,14.1-15.54c2.47-2.72,6.69-2.93,9.41-.45s2.93,6.69.45,9.41h0l-19.03,20.98c-1.26,1.39-3.05,2.19-4.93,2.19"/>
      <path id="_패스_488" data-name="패스 488" class="cls-3" d="M180.12,225.58h-62.38c-3.68,0-6.66-2.98-6.66-6.66s2.98-6.66,6.66-6.66h62.38c3.68,0,6.66,2.98,6.66,6.66s-2.98,6.66-6.66,6.66"/>
      <path id="_패스_489" data-name="패스 489" class="cls-3" d="M202.3,259.58c-3.68,0-6.66-2.98-6.66-6.65,0-.58.07-1.15.22-1.7l.28-1.07c6.15-23.76,18.54-45.44,35.89-62.8l112.51-112.51c2.6-2.6,6.82-2.6,9.42,0,0,0,0,0,0,0l21.39,21.39c5.37,5.36,5.37,14.06,0,19.43,0,0,0,0,0,0l-107.5,107.53c-17.36,17.35-39.04,29.74-62.8,35.89l-1.07.28c-.55.14-1.11.21-1.67.22M349.24,88.99l-107.8,107.8c-13.03,13.03-22.99,28.8-29.17,46.16,17.36-6.18,33.12-16.15,46.16-29.17l107.5-107.5c.14-.18.14-.43,0-.61l-16.68-16.69Z"/>
      <path id="_패스_490" data-name="패스 490" class="cls-3" d="M385.77,94.59c-3.68,0-6.66-2.98-6.66-6.66,0-1.77.7-3.46,1.95-4.71l1.57-1.57-9.05-9.05-1.57,1.57c-2.6,2.6-6.82,2.6-9.42,0-2.6-2.6-2.6-6.82,0-9.42l3.29-3.29c4.31-4.12,11.1-4.12,15.4,0l12.49,12.5c4.25,4.25,4.25,11.15,0,15.4h0s-3.29,3.29-3.29,3.29c-1.25,1.25-2.94,1.95-4.71,1.95"/>
      <path id="_패스_491" data-name="패스 491" class="cls-3" d="M288.75,112.94c-3.68,0-6.66-2.98-6.66-6.66,0-1.77.7-3.46,1.95-4.71l35.69-35.69c6.97-6.96,18.26-6.96,25.24,0l11.14,11.14c2.6,2.6,2.6,6.82,0,9.42-2.6,2.6-6.82,2.6-9.42,0h0l-11.14-11.14c-1.79-1.71-4.61-1.71-6.4,0l-35.69,35.69c-1.25,1.25-2.94,1.95-4.71,1.95"/>
      <path id="_패스_492" data-name="패스 492" class="cls-3" d="M253.03,204.9c-1.77,0-3.46-.7-4.71-1.95l-10.24-10.24c-2.6-2.6-2.6-6.82,0-9.42s6.82-2.6,9.42,0l10.24,10.24c2.6,2.6,2.6,6.82,0,9.42-1.25,1.25-2.94,1.95-4.71,1.95"/>
      <path id="_패스_493" data-name="패스 493" class="cls-3" d="M295.97,334.33c-3.68,0-6.66-2.98-6.66-6.66s2.98-6.66,6.66-6.66c16.87-.02,30.54-13.69,30.56-30.56v-6.27H87.75v6.27c0,24.23-19.64,43.87-43.87,43.88C19.64,334.32,0,314.68,0,290.45c0,0,0,0,0,0V6.66C0,2.98,2.98,0,6.66,0h252.1c3.68,0,6.65,2.98,6.66,6.66v123.34c0,3.68-2.98,6.66-6.66,6.66s-6.66-2.98-6.66-6.66h0V13.32H13.32v277.12c0,16.88,13.68,30.56,30.56,30.56s30.56-13.68,30.56-30.56v-12.92c0-3.68,2.98-6.65,6.66-6.66h252.1c3.68,0,6.65,2.98,6.66,6.66v12.92c-.03,24.22-19.66,43.84-43.87,43.87"/>
      <path id="_패스_494" data-name="패스 494" class="cls-3" d="M296,334.33H43.9c-3.68,0-6.66-2.98-6.66-6.66s2.98-6.66,6.66-6.66h252.1c3.68,0,6.66,2.98,6.66,6.66s-2.98,6.66-6.66,6.66"/>
    </g>
  </g>
</svg>