<svg width="75" height="75" viewBox="0 0 75 75" fill="none" xmlns="http://www.w3.org/2000/svg">
<path d="M75 37.5C75 58.2107 58.2107 75 37.5 75C16.7893 75 0 58.2107 0 37.5C0 16.7893 16.7893 0 37.5 0C58.2107 0 75 16.7893 75 37.5Z" fill="#696969"/>
<path d="M48 18H42C39.3478 18 36.8043 19.0536 34.9289 20.9289C33.0536 22.8043 32 25.3478 32 28V34H26V42H32V58H40V42H46L48 34H40V28C40 27.4696 40.2107 26.9609 40.5858 26.5858C40.9609 26.2107 41.4696 26 42 26H48V18Z" stroke="#1E1E1E" stroke-width="4" stroke-linecap="round" stroke-linejoin="round"/>
</svg>
