<?xml version="1.0" encoding="UTF-8"?>
<svg id="Layer_1" data-name="Layer 1" xmlns="http://www.w3.org/2000/svg" version="1.1" viewBox="0 0 320.8 354.7">
  <defs>
    <style>
      .cls-1 {
        fill: none;
        stroke: #d1d3d4;
        stroke-linecap: round;
        stroke-linejoin: round;
        stroke-width: 7.5px;
      }
    </style>
  </defs>
  <g>
    <path class="cls-1" d="M60,114.7l-7.9-4.7-8-4.8c3.1-5.2,1.4-11.9-3.8-14.9-5.2-3.1-11.9-1.4-14.9,3.8l-12.9,21.6c-3.1,5.2-1.4,11.9,3.8,14.9,5.2,3.1,11.9,1.4,14.9-3.8l10,6"/>
    <path class="cls-1" d="M48.2,136.9l-7-4.2c-2.3,7.7-3.6,15.8-3.6,24.3s1.7,19.4,4.9,28.2"/>
    <path class="cls-1" d="M48.9,180.9l-6.4,4.3-11.7,7.9c-3.4-5-10.1-6.3-15.1-2.9-5,3.4-6.3,10.1-2.9,15.1l14.1,20.8c3.4,5,10.1,6.3,15.1,2.9,5-3.4,6.3-10.1,2.9-15.1l9.6-6.5"/>
    <path class="cls-1" d="M62.8,201.9l-8.2,5.6c12.1,15.9,29.7,27.4,49.9,31.6v-27.8,27.8s0,0,0,0v9.3c-6,0-10.9,4.9-10.9,10.9s4.9,10.9,10.9,10.9h25.1c6,0,10.9-4.9,10.9-10.9s-4.9-10.9-10.9-10.9v-37,27.8c20.3-4.1,37.9-15.7,50-31.6l7.5-13.9"/>
    <path class="cls-1" d="M129.6,75c21.7,4.4,40.3,17.3,52.4,35l6.2,13"/>
    <path class="cls-1" d="M129.6,101.7v-37c6,0,10.9-4.9,10.9-10.9s-4.9-10.9-10.9-10.9h-25.1c-6,0-10.9,4.9-10.9,10.9s4.9,10.9,10.9,10.9v10.3"/>
    <path class="cls-1" d="M104.5,101.7v-26.7c-21.7,4.4-40.3,17.3-52.4,35"/>
  </g>
  <path class="cls-1" d="M195.4,118v-22.4c0-6,4.9-11,11-11h71.1c6,0,11,4.9,11,11v22.4"/>
  <path class="cls-1" d="M196.6,118h91.5c5.3,0,9.5,4.3,9.5,9.5v161.6c0,30.5-24.8,55.3-55.3,55.3h0c-30.5,0-55.3-24.8-55.3-55.3V127.5c0-5.3,4.3-9.5,9.5-9.5Z"/>
  <line class="cls-1" x1="242.4" y1="52.4" x2="242.4" y2="213.2"/>
  <rect class="cls-1" x="175.7" y="13.1" width="133.4" height="39.3" rx="7.7" ry="7.7"/>
  <line class="cls-1" x1="209.2" y1="52.4" x2="209.2" y2="13.1"/>
  <path class="cls-1" d="M252.5,213.2s14.8,30.3,14.8,43.8-11,24.5-24.6,24.5-24.6-11-24.6-24.5,14.8-43.8,14.8-43.8h19.5Z"/>
</svg>