<?xml version="1.0" encoding="UTF-8"?>
<svg id="Layer_1" data-name="Layer 1" xmlns="http://www.w3.org/2000/svg" viewBox="0 0 292.88 276.45">
  <defs>
    <style>
      .cls-1 {
        fill: #333;
        stroke-width: 0px;
      }
    </style>
  </defs>
  <g>
    <g>
      <g>
        <path class="cls-1" d="M126.57,273.18c-10.13,0-18.94-7.2-20.96-17.12l-11.27-55.28h-42.34c-14.58,0-26.44-11.86-26.44-26.44v-99.38c0-15.03,12.23-27.25,27.25-27.25h4.11c14.71,0,27.28,10.01,30.57,24.35l7.56,32.95h25.26c10.67,0,19.35,8.68,19.35,19.35s-8.68,19.35-19.35,19.35h-46.18c-7.55,0-14.21-5.09-16.18-12.39l-5.33-19.71c-.88-3.25,1.04-6.6,4.29-7.48,3.25-.88,6.6,1.04,7.48,4.29l5.33,19.71c.54,1.99,2.35,3.38,4.41,3.38h46.18c3.95,0,7.16-3.21,7.16-7.16s-3.21-7.16-7.16-7.16h-30.12c-2.84,0-5.31-1.96-5.94-4.73l-8.65-37.68c-2.01-8.76-9.69-14.88-18.68-14.88h-4.11c-8.31,0-15.06,6.76-15.06,15.06v99.38c0,7.86,6.39,14.25,14.25,14.25h47.32c2.9,0,5.4,2.04,5.97,4.88l12.26,60.16c.87,4.27,4.66,7.36,9.01,7.36,2.69,0,5.24-1.18,7-3.22,1.75-2.05,2.51-4.75,2.09-7.41l-11.35-71.81c-1.11-7-7.06-12.09-14.15-12.09h-30.82c-3.37,0-6.1-2.73-6.1-6.09s2.73-6.1,6.1-6.1h30.82c13.13,0,24.14,9.41,26.19,22.37l11.35,71.81c.98,6.19-.8,12.47-4.87,17.23-4.07,4.76-10,7.5-16.26,7.5Z"/>
        <path class="cls-1" d="M55.83,59.9c-16.52,0-29.95-13.44-29.95-29.95S39.31,0,55.83,0s29.95,13.44,29.95,29.95-13.44,29.95-29.95,29.95ZM55.83,12.19c-9.79,0-17.76,7.97-17.76,17.76s7.97,17.76,17.76,17.76,17.76-7.97,17.76-17.76-7.97-17.76-17.76-17.76Z"/>
        <path class="cls-1" d="M79.21,224.16h-34.17c-24.84,0-45.05-20.21-45.05-45.04v-98.54c0-3.37,2.73-6.09,6.1-6.09s6.1,2.73,6.1,6.09v98.54c0,18.12,14.74,32.85,32.85,32.85h34.17c3.37,0,6.1,2.73,6.1,6.1s-2.73,6.09-6.1,6.09Z"/>
      </g>
      <path class="cls-1" d="M45.05,276.45c-3.37,0-6.1-2.73-6.1-6.09v-52.29c0-3.37,2.73-6.1,6.1-6.1s6.09,2.73,6.09,6.1v52.29c0,3.37-2.73,6.09-6.09,6.09Z"/>
      <path class="cls-1" d="M79.21,276.45H10.88c-3.37,0-6.1-2.73-6.1-6.1s2.73-6.1,6.1-6.1h68.33c3.37,0,6.1,2.73,6.1,6.1s-2.73,6.1-6.1,6.1Z"/>
    </g>
    <path class="cls-1" d="M286.78,143.71H120.33c-3.37,0-6.09-2.73-6.09-6.1s2.73-6.1,6.09-6.1h166.46c3.37,0,6.1,2.73,6.1,6.1s-2.73,6.1-6.1,6.1Z"/>
  </g>
  <path class="cls-1" d="M269.24,117.12h-115.28c-1.87,0-3.63-.86-4.79-2.32-1.16-1.47-1.57-3.38-1.14-5.19l17.54-73.31c.66-2.74,3.11-4.68,5.93-4.68h115.28c1.87,0,3.63.86,4.79,2.32,1.16,1.47,1.57,3.38,1.14,5.19l-17.54,73.31c-.66,2.74-3.11,4.68-5.93,4.68ZM161.68,104.93h102.75l14.63-61.12h-102.75l-14.63,61.12Z"/>
  <path class="cls-1" d="M228.17,143.71c-2.64,0-5.07-1.72-5.85-4.38l-7.8-26.59c-.95-3.23.9-6.62,4.14-7.56,3.22-.95,6.61.9,7.56,4.13l7.8,26.59c.95,3.23-.9,6.62-4.14,7.56-.57.17-1.15.25-1.72.25Z"/>
  <path class="cls-1" d="M258.67,276.45c-3.37,0-6.1-2.73-6.1-6.1v-132.74c0-3.37,2.73-6.1,6.1-6.1s6.09,2.73,6.09,6.1v132.74c0,3.37-2.73,6.1-6.09,6.1Z"/>
  <path class="cls-1" d="M286.78,276.45h-83.23c-3.37,0-6.1-2.73-6.1-6.1s2.73-6.1,6.1-6.1h83.23c3.37,0,6.1,2.73,6.1,6.1s-2.73,6.1-6.1,6.1Z"/>
</svg>