<?xml version="1.0" encoding="UTF-8"?>
<svg id="Layer_1" data-name="Layer 1" xmlns="http://www.w3.org/2000/svg" viewBox="0 0 295.3 248.71">
  <defs>
    <style>
      .cls-1 {
        fill: #333;
        stroke-width: 0px;
      }
    </style>
  </defs>
  <g>
    <path class="cls-1" d="M53.39,59.32h0c-1.4,0-2.73-.59-3.67-1.63l-8.93-9.84c-1.84-2.03-1.69-5.16.34-7,2.03-1.84,5.16-1.68,7,.34l5.26,5.8,10.49-11.56c1.84-2.03,4.97-2.18,7-.34,2.02,1.84,2.18,4.97.34,7l-14.16,15.6c-.94,1.03-2.27,1.62-3.67,1.62Z"/>
    <path class="cls-1" d="M152.51,55.64h-64.92c-2.74,0-4.95-2.22-4.95-4.95s2.22-4.95,4.95-4.95h64.92c2.74,0,4.95,2.22,4.95,4.95s-2.22,4.95-4.95,4.95Z"/>
  </g>
  <g>
    <path class="cls-1" d="M53.39,115.4h0c-1.4,0-2.73-.59-3.67-1.63l-8.93-9.84c-1.84-2.02-1.69-5.16.34-7,2.03-1.84,5.16-1.69,7,.34l5.26,5.8,10.49-11.56c1.84-2.02,4.97-2.18,7-.34,2.02,1.84,2.18,4.97.34,7l-14.16,15.6c-.94,1.03-2.27,1.62-3.67,1.62Z"/>
    <path class="cls-1" d="M152.51,111.71h-64.92c-2.74,0-4.95-2.22-4.95-4.95s2.22-4.95,4.95-4.95h64.92c2.74,0,4.95,2.22,4.95,4.95s-2.22,4.95-4.95,4.95Z"/>
  </g>
  <g>
    <path class="cls-1" d="M53.39,171.48h0c-1.4,0-2.73-.59-3.67-1.63l-8.93-9.84c-1.84-2.02-1.69-5.16.34-7,2.03-1.84,5.16-1.69,7,.34l5.26,5.8,10.49-11.56c1.84-2.02,4.97-2.18,7-.34,2.02,1.84,2.18,4.97.34,7l-14.16,15.6c-.94,1.03-2.27,1.62-3.67,1.62Z"/>
    <path class="cls-1" d="M133.99,167.79h-46.4c-2.74,0-4.95-2.22-4.95-4.95s2.22-4.95,4.95-4.95h46.4c2.74,0,4.95,2.22,4.95,4.95s-2.22,4.95-4.95,4.95Z"/>
  </g>
  <g>
    <g>
      <path class="cls-1" d="M150.49,193.1c-1.3,0-2.56-.51-3.5-1.45-1.24-1.24-1.73-3.05-1.29-4.75l.21-.8c4.56-17.66,13.8-33.81,26.7-46.71l83.7-83.7c.93-.93,2.19-1.45,3.5-1.45h0c1.31,0,2.57.52,3.5,1.45l15.91,15.91c1.93,1.93,3,4.5,3,7.23s-1.06,5.3-3,7.23l-79.97,79.97c-12.9,12.9-29.05,22.13-46.71,26.7l-.8.21c-.41.11-.83.16-1.24.16ZM259.8,66.2l-80.19,80.19c-9.71,9.71-17.12,21.46-21.7,34.34,12.88-4.59,24.63-12,34.34-21.7l79.97-79.97c.1-.11.11-.34,0-.45l-12.41-12.41Z"/>
      <path class="cls-1" d="M286.98,70.37c-1.27,0-2.54-.48-3.5-1.45-1.94-1.93-1.94-5.07,0-7.01l1.17-1.17-6.74-6.75-1.17,1.17c-1.94,1.93-5.07,1.93-7.01,0-1.93-1.94-1.93-5.07,0-7.01l2.45-2.44c3.06-3.06,8.4-3.06,11.46,0l9.3,9.3c1.53,1.53,2.37,3.56,2.37,5.73s-.84,4.2-2.37,5.73l-2.44,2.44c-.97.97-2.24,1.45-3.5,1.45Z"/>
      <path class="cls-1" d="M214.8,84.02c-1.27,0-2.54-.48-3.5-1.45-1.94-1.93-1.94-5.07,0-7l26.55-26.55c5.18-5.17,13.6-5.18,18.77,0l8.3,8.3c1.94,1.93,1.94,5.07,0,7.01-1.94,1.94-5.07,1.94-7,0l-8.3-8.3c-1.27-1.27-3.49-1.27-4.76,0l-26.55,26.55c-.97.97-2.24,1.45-3.5,1.45Z"/>
      <path class="cls-1" d="M188.23,152.42c-1.27,0-2.54-.48-3.5-1.45l-7.61-7.61c-1.93-1.94-1.93-5.07,0-7.01,1.94-1.93,5.07-1.93,7,0l7.61,7.61c1.93,1.94,1.93,5.07,0,7-.97.97-2.24,1.45-3.5,1.45Z"/>
    </g>
    <path class="cls-1" d="M220.2,248.71c-2.74,0-4.95-2.22-4.95-4.95s2.22-4.95,4.95-4.95c12.54,0,22.73-10.2,22.73-22.73v-4.66H65.28v4.66c0,18-14.64,32.64-32.64,32.64S0,234.06,0,216.06V4.95C0,2.22,2.22,0,4.95,0h187.56c2.74,0,4.95,2.22,4.95,4.95v91.75c0,2.74-2.22,4.95-4.95,4.95s-4.95-2.22-4.95-4.95V9.91H9.91v206.16c0,12.54,10.2,22.73,22.73,22.73s22.73-10.2,22.73-22.73v-9.61c0-2.74,2.22-4.95,4.95-4.95h187.56c2.74,0,4.95,2.22,4.95,4.95v9.61c0,18-14.64,32.64-32.64,32.64Z"/>
    <path class="cls-1" d="M220.2,248.71H32.64c-2.74,0-4.95-2.22-4.95-4.95s2.22-4.95,4.95-4.95h187.55c2.74,0,4.95,2.22,4.95,4.95s-2.22,4.95-4.95,4.95Z"/>
  </g>
</svg>