<?xml version="1.0" encoding="UTF-8"?>
<svg id="Layer_1" data-name="Layer 1" xmlns="http://www.w3.org/2000/svg" viewBox="0 0 295.95 278.67">
  <defs>
    <style>
      .cls-1 {
        fill: #333;
        stroke-width: 0px;
      }
    </style>
  </defs>
  <g>
    <path class="cls-1" d="M91.6,196.22c-1.64,0-3.3-.36-4.86-1.1-3.98-1.89-6.45-5.79-6.45-10.2v-2.1c-8.87-.16-16.03-7.42-16.03-16.33v-55.33c0-9.01,7.33-16.33,16.33-16.33h81.96c9.01,0,16.33,7.33,16.33,16.33v55.33c0,9.01-7.33,16.33-16.33,16.33h-50.58l-13.24,10.84c-2.07,1.69-4.58,2.57-7.12,2.57ZM80.59,104.87c-3.47,0-6.29,2.82-6.29,6.29v55.33c0,3.46,2.82,6.29,6.29,6.29h4.72c2.78,0,5.02,2.25,5.02,5.02v7.12c0,.65.38.97.71,1.12.32.15.82.25,1.31-.16l14.63-11.97c.9-.73,2.02-1.14,3.18-1.14h52.38c3.47,0,6.29-2.82,6.29-6.29v-55.33c0-3.46-2.82-6.29-6.29-6.29h-81.96Z"/>
    <path class="cls-1" d="M204.35,225.93c-2.54,0-5.05-.87-7.12-2.57l-13.24-10.83h-50.58c-9.01,0-16.34-7.33-16.34-16.34,0-2.77,2.25-5.02,5.02-5.02s5.02,2.25,5.02,5.02c0,3.47,2.82,6.29,6.29,6.29h52.38c1.16,0,2.29.4,3.18,1.14l14.63,11.97c.5.41.99.31,1.31.16.32-.15.71-.47.71-1.12v-7.12c0-2.77,2.25-5.02,5.02-5.02h4.72c3.47,0,6.29-2.82,6.29-6.29v-55.33c0-3.47-2.82-6.29-6.29-6.29h-23.05c-2.78,0-5.02-2.25-5.02-5.02s2.25-5.02,5.02-5.02h23.05c9.01,0,16.34,7.33,16.34,16.34v55.33c0,8.91-7.17,16.17-16.03,16.33v2.1c0,4.4-2.47,8.31-6.45,10.2-1.56.74-3.22,1.1-4.86,1.1Z"/>
  </g>
  <g>
    <path class="cls-1" d="M256.76,191.86c-2.78,0-5.02-2.25-5.02-5.02v-73.03c0-57.22-46.55-103.76-103.76-103.76S44.21,56.6,44.21,113.81v73.03c0,2.77-2.25,5.02-5.02,5.02s-5.02-2.25-5.02-5.02v-73.03C34.16,51.06,85.22,0,147.98,0s113.81,51.06,113.81,113.81v73.03c0,2.77-2.25,5.02-5.02,5.02Z"/>
    <path class="cls-1" d="M39.18,191.86h-14.66c-13.52,0-24.52-11-24.52-24.52v-39.74c0-13.52,11-24.52,24.52-24.52h14.66c2.78,0,5.02,2.25,5.02,5.02v78.74c0,2.77-2.25,5.02-5.02,5.02ZM24.52,113.12c-7.98,0-14.47,6.49-14.47,14.47v39.74c0,7.98,6.49,14.47,14.47,14.47h9.64v-68.69h-9.64Z"/>
    <path class="cls-1" d="M271.43,191.86h-14.66c-2.78,0-5.02-2.25-5.02-5.02v-78.74c0-2.77,2.25-5.02,5.02-5.02h14.66c13.52,0,24.52,11,24.52,24.52v39.74c0,13.52-11,24.52-24.52,24.52ZM261.79,181.81h9.64c7.98,0,14.47-6.49,14.47-14.47v-39.74c0-7.98-6.49-14.47-14.47-14.47h-9.64v68.69Z"/>
    <path class="cls-1" d="M106.85,267.81h-2.55c-38.67,0-70.14-31.46-70.14-70.14v-10.83c0-2.77,2.25-5.02,5.02-5.02s5.02,2.25,5.02,5.02v10.83c0,33.13,26.96,60.09,60.09,60.09h2.55c2.78,0,5.02,2.25,5.02,5.02s-2.25,5.02-5.02,5.02Z"/>
    <path class="cls-1" d="M155.33,278.67h-14.7c-7.72,0-13.99-6.28-13.99-13.99v-3.79c0-7.72,6.28-13.99,13.99-13.99h14.7c7.71,0,13.99,6.28,13.99,13.99v3.79c0,7.72-6.28,13.99-13.99,13.99ZM140.62,256.94c-2.18,0-3.94,1.77-3.94,3.94v3.79c0,2.17,1.77,3.94,3.94,3.94h14.7c2.17,0,3.94-1.77,3.94-3.94v-3.79c0-2.17-1.77-3.94-3.94-3.94h-14.7Z"/>
  </g>
  <g>
    <path class="cls-1" d="M122.03,145.8c-.34,0-.66-.03-.98-.09-.32-.06-.63-.17-.95-.29-.29-.14-.6-.29-.86-.46-.29-.2-.55-.4-.78-.63-.23-.23-.43-.49-.63-.78-.17-.26-.32-.55-.46-.86-.11-.29-.2-.6-.29-.95-.06-.32-.09-.63-.09-.98,0-.31.03-.66.09-.98.08-.32.17-.63.29-.95.14-.29.29-.57.46-.86.2-.26.4-.52.63-.78.23-.23.49-.43.78-.6.26-.17.57-.34.86-.46.31-.14.63-.23.95-.29.63-.14,1.29-.14,1.95,0,.32.06.63.14.95.29.29.12.6.29.86.46.29.17.55.37.78.6.23.26.43.52.6.78.2.29.34.57.46.86.15.32.23.63.32.95.06.31.09.66.09.98,0,.34-.03.66-.09.98-.09.34-.17.66-.32.95-.11.32-.26.6-.46.86-.17.29-.37.55-.6.78-.95.95-2.24,1.46-3.56,1.46Z"/>
    <path class="cls-1" d="M142.9,145.8c-.31,0-.66-.03-.98-.09-.31-.06-.63-.17-.95-.29-.31-.14-.6-.29-.86-.46-.29-.2-.55-.4-.77-.63-.92-.92-1.47-2.21-1.47-3.56,0-.31.03-.66.12-.98.06-.32.14-.63.26-.95.15-.29.29-.57.46-.86.2-.26.4-.52.63-.75.23-.26.49-.46.77-.63.26-.17.55-.34.86-.46.32-.14.63-.23.95-.29.63-.14,1.32-.14,1.95,0,.32.06.63.14.95.29.29.12.6.29.86.46.29.17.54.37.77.63.92.92,1.46,2.21,1.46,3.53s-.54,2.64-1.46,3.56c-.23.23-.49.43-.77.63-.26.17-.57.32-.86.46-.31.12-.63.23-.95.29-.31.06-.66.09-.98.09Z"/>
    <path class="cls-1" d="M101.16,145.8c-1.32,0-2.61-.52-3.56-1.46s-1.47-2.24-1.47-3.56.55-2.61,1.47-3.53c1.86-1.89,5.22-1.89,7.12,0,.92.92,1.46,2.21,1.46,3.53s-.54,2.61-1.46,3.56c-.95.95-2.24,1.46-3.56,1.46Z"/>
  </g>
</svg>