<?xml version="1.0" encoding="UTF-8"?>
<svg id="Layer_1" data-name="Layer 1" xmlns="http://www.w3.org/2000/svg" xmlns:xlink="http://www.w3.org/1999/xlink" viewBox="0 0 327.26 308.15">
  <defs>
    <style>
      .cls-1 {
        clip-path: url(#clippath);
      }

      .cls-2 {
        fill: none;
      }

      .cls-2, .cls-3 {
        stroke-width: 0px;
      }

      .cls-3 {
        fill: #707070;
      }
    </style>
    <clipPath id="clippath">
      <rect class="cls-2" width="327.26" height="308.15"/>
    </clipPath>
  </defs>
  <g class="cls-1">
    <g id="_그룹_95" data-name="그룹 95">
      <path id="_패스_463" data-name="패스 463" class="cls-3" d="M101.3,216.99c-6.9-.01-12.49-5.6-12.51-12.5v-2.32c-9.84-.19-17.72-8.22-17.73-18.06v-61.19c.01-9.97,8.09-18.05,18.06-18.06h90.61c9.97.01,18.05,8.09,18.06,18.06v61.19c-.01,9.97-8.09,18.05-18.06,18.06h-55.93l-14.68,11.98c-2.22,1.83-5,2.83-7.87,2.84M89.11,115.97c-3.83,0-6.94,3.11-6.95,6.95v61.19c0,3.84,3.11,6.95,6.95,6.95h5.22c3.07,0,5.56,2.49,5.56,5.56v7.88c0,.75.61,1.37,1.36,1.37.32,0,.63-.11.87-.31l16.18-13.24c.99-.81,2.23-1.25,3.52-1.25h57.92c3.84,0,6.95-3.12,6.95-6.95v-61.19c0-3.84-3.12-6.94-6.95-6.95h-90.62Z"/>
      <path id="_패스_464" data-name="패스 464" class="cls-3" d="M225.98,249.83c-2.87,0-5.66-1.01-7.87-2.84l-14.65-11.98h-55.93c-9.97-.01-18.05-8.09-18.06-18.06-.21-3.06,2.1-5.72,5.16-5.93,3.06-.21,5.72,2.1,5.93,5.16.02.25.02.51,0,.76,0,3.84,3.12,6.95,6.95,6.95h57.92c1.28,0,2.52.44,3.52,1.25l16.18,13.24c.59.48,1.45.39,1.93-.19.2-.24.31-.55.31-.86v-7.87c0-3.07,2.49-5.56,5.56-5.56h5.22c3.84.01,6.97-3.1,6.98-6.94h0v-61.19c0-3.84-3.12-6.95-6.95-6.95h-25.49c-3.06-.21-5.37-2.86-5.16-5.93.19-2.77,2.39-4.97,5.16-5.16h25.49c9.97.01,18.05,8.09,18.06,18.06v61.19c-.01,9.84-7.89,17.87-17.73,18.06v2.32c.02,4.83-2.76,9.23-7.14,11.28-1.68.8-3.52,1.22-5.38,1.22"/>
      <path id="_패스_465" data-name="패스 465" class="cls-3" d="M283.93,212.16c-3.07,0-5.56-2.49-5.56-5.56v-80.75c-.01-63.37-51.39-114.74-114.77-114.73-63.36.01-114.71,51.37-114.73,114.73v80.75c.21,3.06-2.1,5.72-5.16,5.93-3.06.21-5.72-2.1-5.93-5.16-.02-.25-.02-.51,0-.76v-80.75C37.82,56.35,94.19.02,163.7.05c69.47.03,125.78,56.34,125.8,125.8v80.75c0,3.07-2.48,5.55-5.55,5.56"/>
      <path id="_패스_466" data-name="패스 466" class="cls-3" d="M43.33,212.16h-16.21c-14.97-.01-27.1-12.14-27.12-27.11v-43.95c.01-14.97,12.15-27.1,27.12-27.12h16.21c3.07,0,5.56,2.49,5.56,5.56v87.07c0,3.07-2.49,5.56-5.56,5.56M27.12,125.09c-8.85,0-16.02,7.16-16.03,16.01v43.95c0,8.85,7.17,16.02,16.02,16.02h10.67v-75.98h-10.66Z"/>
      <path id="_패스_467" data-name="패스 467" class="cls-3" d="M300.15,212.16h-16.21c-3.07,0-5.56-2.49-5.56-5.56h0v-87.08c0-3.07,2.49-5.56,5.56-5.56h16.21c14.97.02,27.1,12.15,27.11,27.12v43.95c-.01,14.97-12.14,27.1-27.11,27.12M289.49,201.07h10.66c8.83-.01,15.99-7.17,16-16v-43.95c-.01-8.83-7.17-15.99-16-16h-10.66v75.96Z"/>
      <path id="_패스_468" data-name="패스 468" class="cls-3" d="M118.15,296.12h-2.82c-42.82-.04-77.52-34.74-77.56-77.56v-11.97c-.21-3.06,2.1-5.72,5.16-5.93,3.06-.21,5.72,2.1,5.93,5.16.02.25.02.51,0,.76v11.97c.04,36.69,29.78,66.43,66.47,66.47h2.82c3.06.21,5.37,2.86,5.16,5.93-.19,2.77-2.39,4.97-5.16,5.16"/>
      <path id="_패스_469" data-name="패스 469" class="cls-3" d="M171.76,308.14h-16.26c-8.54,0-15.47-6.93-15.47-15.47v-4.19c0-8.54,6.93-15.47,15.47-15.47h16.26c8.54.01,15.46,6.93,15.47,15.47v4.19c0,8.54-6.93,15.46-15.47,15.47M155.51,284.11c-2.41,0-4.36,1.95-4.36,4.36v4.19c0,2.41,1.96,4.36,4.36,4.36h16.26c2.41,0,4.35-1.95,4.36-4.36v-4.19c0-2.41-1.95-4.35-4.36-4.36h-16.26Z"/>
      <path id="_패스_470" data-name="패스 470" class="cls-3" d="M134.94,161.23c-.36,0-.72-.03-1.08-.1-.36-.08-.71-.18-1.05-.32-.33-.15-.65-.32-.95-.51-.31-.21-.6-.44-.86-.7-.26-.26-.49-.55-.7-.85-.2-.3-.37-.62-.51-.95-.13-.34-.23-.69-.31-1.04-.07-.36-.1-.72-.1-1.08,0-.36.03-.72.1-1.08.09-.35.19-.7.31-1.05s.31-.65.51-.95.44-.57.7-.85c.26-.25.55-.47.86-.65.3-.2.62-.37.95-.51.34-.15.69-.26,1.05-.32.71-.16,1.45-.16,2.16,0,.36.06.71.17,1.05.32.33.14.65.31.95.51.31.18.6.4.86.65.24.27.45.56.65.85.2.3.37.62.5.95.15.34.26.69.35,1.05.06.36.1.72.1,1.08,0,.36-.03.73-.1,1.08-.08.36-.2.71-.35,1.04-.12.34-.29.66-.5.95-.18.31-.4.6-.65.85-1.04,1.03-2.45,1.61-3.91,1.62"/>
      <path id="_패스_471" data-name="패스 471" class="cls-3" d="M158.02,161.23c-.36,0-.72-.03-1.08-.1-.36-.08-.71-.18-1.05-.32-.33-.14-.65-.31-.95-.51-.31-.21-.59-.44-.85-.7-1.03-1.04-1.62-2.45-1.62-3.91,0-.36.04-.72.13-1.08.07-.36.16-.71.29-1.05.16-.32.32-.65.51-.95.22-.29.45-.57.7-.83.25-.28.54-.51.85-.7.3-.21.62-.38.95-.51.34-.15.69-.26,1.05-.32.71-.16,1.45-.16,2.16,0,.36.06.71.17,1.05.32.33.14.65.31.95.51.32.19.61.42.85.7,1.03,1.04,1.61,2.45,1.62,3.91-.01,1.47-.59,2.87-1.62,3.91-.26.26-.55.49-.85.7-.31.19-.63.36-.95.51-.34.14-.69.24-1.05.32-.36.06-.72.1-1.08.1"/>
      <path id="_패스_472" data-name="패스 472" class="cls-3" d="M111.86,161.23c-1.47,0-2.87-.58-3.91-1.62-1.03-1.05-1.61-2.45-1.62-3.91,0-1.47.58-2.87,1.62-3.91,2.21-2.1,5.67-2.1,7.87,0,1.03,1.04,1.61,2.45,1.62,3.91-.02,1.46-.6,2.86-1.62,3.91-1.04,1.03-2.45,1.61-3.91,1.62"/>
    </g>
  </g>
</svg>