<?xml version="1.0" encoding="UTF-8"?>
<svg id="Layer_1" data-name="Layer 1" xmlns="http://www.w3.org/2000/svg" xmlns:xlink="http://www.w3.org/1999/xlink" viewBox="0 0 331.72 337.29">
  <defs>
    <style>
      .cls-1 {
        clip-path: url(#clippath);
      }

      .cls-2 {
        stroke-width: 0px;
      }

      .cls-2, .cls-3 {
        fill: none;
      }

      .cls-3 {
        stroke: #707070;
        stroke-linecap: round;
        stroke-linejoin: round;
        stroke-width: 13.47px;
      }
    </style>
    <clipPath id="clippath">
      <rect class="cls-2" x="2.3" y="2.26" width="327.15" height="332.7"/>
    </clipPath>
  </defs>
  <g class="cls-1">
    <g id="_그룹_54" data-name="그룹 54">
      <path id="_패스_89" data-name="패스 89" class="cls-3" d="M209.28,183.58c45.91-23.88,63.77-80.45,39.89-126.36C225.3,11.31,168.72-6.55,122.81,17.32c-45.91,23.88-63.77,80.45-39.89,126.36,8.79,16.9,22.53,30.73,39.38,39.62"/>
      <path id="_패스_90" data-name="패스 90" class="cls-3" d="M189.35,137.46c-10.02,0-19.14,5.75-23.48,14.77-6.24-12.98-21.83-18.43-34.8-12.19-9.03,4.35-14.77,13.48-14.77,23.5,0,31.31,49.57,60,49.57,60,0,0,49.57-28.7,49.57-60,0-14.41-11.68-26.09-26.09-26.09Z"/>
      <path id="_패스_91" data-name="패스 91" class="cls-3" d="M115.34,124.47c-1.11-7.79-1.66-15.66-1.65-23.53,0-51.85,23.36-93.92,52.18-93.92s52.18,42.05,52.18,93.92c0,6.98-.43,13.95-1.29,20.88"/>
      <line id="_선_17" data-name="선 17" class="cls-3" x1="74.56" y1="100.94" x2="257.18" y2="100.94"/>
      <line id="_선_18" data-name="선 18" class="cls-3" x1="165.88" y1="7.02" x2="165.88" y2="121.81"/>
      <path id="_패스_92" data-name="패스 92" class="cls-3" d="M251.96,330.53v-6.56c0-4.15,1.65-8.14,4.59-11.07l60.82-60.82c4.88-4.89,7.62-11.51,7.62-18.42v-126.83c-.05-9.02-7.4-16.28-16.41-16.23-8.41.05-15.4,6.47-16.17,14.84l-6.68,78.24-1.63.95c-6.15-2.41-13.14-.95-17.81,3.72l-18.99,18.99c-5.38,5.38-12.68,8.4-20.29,8.4h-.15c-8.99,0-17.62,3.57-23.98,9.93l-29.39,29.39c-4.89,4.89-7.64,11.53-7.64,18.44v57.02"/>
      <path id="_패스_93" data-name="패스 93" class="cls-3" d="M165.88,330.53v-57.02c0-6.92-2.74-13.56-7.62-18.45l-29.39-29.39c-6.36-6.36-14.99-9.93-23.98-9.93h-.17c-7.61,0-14.91-3.02-20.29-8.4l-18.99-18.99c-4.5-4.5-11.18-6.04-17.2-3.95l-2.24-.72-6.68-78.23c-.72-8.45-7.79-14.93-16.26-14.93h0c-9.01,0-16.31,7.31-16.32,16.32v126.83c0,6.92,2.75,13.55,7.64,18.44l60.82,60.82c2.94,2.94,4.59,6.92,4.59,11.07v6.56"/>
      <path id="_패스_94" data-name="패스 94" class="cls-3" d="M286.97,186.05c7.74,4.94,10.01,15.21,5.08,22.95-.65,1.01-1.4,1.95-2.25,2.8l-45.66,45.66"/>
      <path id="_패스_95" data-name="패스 95" class="cls-3" d="M46.11,185.3c-8.16,4.2-11.37,14.21-7.17,22.37.79,1.53,1.8,2.92,3.02,4.14l45.66,45.66"/>
    </g>
  </g>
</svg>