<svg width="739" height="175" viewBox="0 0 739 175" fill="none" xmlns="http://www.w3.org/2000/svg">
<path d="M571.29 72.86H596.76V132.63H623.79V8H596.76V50.63H571.29V72.86Z" fill="white"/>
<path d="M542.8 78.26C550.48 90.27 562.29 99.26 577.28 104.45L579.48 105.21L594.16 86.27L590.6 85.06C569.39 77.82 556.21 61.79 556.21 43.23V38.15H587.14V17.86H495.23V38.15H528.53V43.23C528.53 62.94 514.26 80.71 492.18 88.49L488.61 89.75L503.82 108.65L506 107.87C522.21 102.01 534.83 91.84 542.8 78.26Z" fill="white"/>
<path d="M549.99 110.63H521.67V165.89H661.27V143.67H549.99V110.63Z" fill="white"/>
<path d="M661.27 8H634.24V132.64H661.27V8Z" fill="white"/>
<path d="M230.51 66.89H213.71V8H186.68V165.55H213.71V86.4H230.51V165.55H257.54V8H230.51V66.89Z" fill="white"/>
<path d="M454.67 8H426.57V165.89H454.67V8Z" fill="white"/>
<path d="M293.37 43.73H312.7V124.84H293.36V146.86H408.69V124.84H389.36V43.73H408.7V21.71H293.37V43.73ZM340.17 124.84V43.73H361.91V124.84H340.17Z" fill="white"/>
<path d="M103.67 95.57H170.53V21.71H76V44.48H143.28V73.01H76.43V146.86H170.96V124.09H103.67V95.57Z" fill="white"/>
</svg>
