<?xml version="1.0" encoding="UTF-8"?>
<svg id="Layer_1" data-name="Layer 1" xmlns="http://www.w3.org/2000/svg" version="1.1" viewBox="0 0 223.8 360.7">
  <defs>
    <style>
      .cls-1 {
        fill: none;
        stroke: white;
        stroke-linecap: round;
        stroke-linejoin: round;
        stroke-width: 7.5px;
      }
    </style>
  </defs>
  <path class="cls-1" d="M116.4,155.4l13.3-10.2c22.6-16.4,37.3-43,37.3-73v-39c0-12.1,9.8-21.8,21.8-21.8h0c12.1,0,21.8,9.8,21.8,21.8v26.1l-5.3,60.1c-4.2,13.9-10.6,26.8-18.9,38.3-3,4.1-6.2,8.1-9.7,11.8l-12.2,11.9"/>
  <path class="cls-1" d="M63.6,181.3l-8.7,7.8c-4.8,4.8-9.2,10-13.1,15.5-15.3,21.1-24.2,47.1-24.2,75.2v44.6c0,12.5,10.5,22.6,23.2,21.8,11.7-.7,20.5-11,20.5-22.7v-33.5c0-31.2,15.9-58.7,39.9-74.8l12.7-7.3"/>
  <line class="cls-1" x1="65.7" y1="262" x2="162.3" y2="262"/>
  <line class="cls-1" x1="61.2" y1="307.3" x2="166.8" y2="307.3"/>
  <line class="cls-1" x1="163.6" y1="96.4" x2="64.2" y2="96.4"/>
  <line class="cls-1" x1="167.1" y1="51" x2="60.9" y2="51"/>
  <path class="cls-1" d="M39.1,11.3c12.1,0,21.8,9.8,21.8,21.8v39c0,39.5,25.4,73,60.7,85.2.3.1.6.2.9.3h0c4.6,1.5,9.1,3.3,13.4,5.3,16.6,7.7,31.2,18.8,43.1,32.4,2.6,2.9,5,6,7.2,9.2,15.3,21.1,24.2,47.1,24.2,75.2v44.6c0,12.1-9.8,21.8-21.8,21.8s-21.8-9.8-21.8-21.8v-34.3c0-39.5-25.4-73.1-60.9-85.3h0c-4.4-1.4-8.7-3.1-12.9-5-20.7-9.3-38.5-23.9-51.6-42.2-15.3-21.1-24.2-47.1-24.2-75.2v-49.3c0-12.1,9.8-21.8,21.8-21.8h0Z"/>
</svg>