<svg width="75" height="75" viewBox="0 0 75 75" fill="none" xmlns="http://www.w3.org/2000/svg">
<path d="M75 37.5C75 58.2107 58.2107 75 37.5 75C16.7893 75 0 58.2107 0 37.5C0 16.7893 16.7893 0 37.5 0C58.2107 0 75 16.7893 75 37.5Z" fill="#696969"/>
<path d="M48 30C51.1826 30 54.2348 31.2643 56.4853 33.5147C58.7357 35.7652 60 38.8174 60 42V56H52V42C52 40.9391 51.5786 39.9217 50.8284 39.1716C50.0783 38.4214 49.0609 38 48 38C46.9391 38 45.9217 38.4214 45.1716 39.1716C44.4214 39.9217 44 40.9391 44 42V56H36V42C36 38.8174 37.2643 35.7652 39.5147 33.5147C41.7652 31.2643 44.8174 30 48 30Z" stroke="#1E1E1E" stroke-width="4" stroke-linecap="round" stroke-linejoin="round"/>
<path d="M28 32H20V56H28V32Z" stroke="#1E1E1E" stroke-width="4" stroke-linecap="round" stroke-linejoin="round"/>
<path d="M24 26C26.2091 26 28 24.2091 28 22C28 19.7909 26.2091 18 24 18C21.7909 18 20 19.7909 20 22C20 24.2091 21.7909 26 24 26Z" stroke="#1E1E1E" stroke-width="4" stroke-linecap="round" stroke-linejoin="round"/>
</svg>
