<?xml version="1.0" encoding="UTF-8"?>
<svg id="Layer_1" data-name="Layer 1" xmlns="http://www.w3.org/2000/svg" viewBox="0 0 377.56 331.57">
  <defs>
    <style>
      .cls-1 {
        fill: #c00020;
      }

      .cls-1, .cls-2, .cls-3 {
        stroke-width: 0px;
      }

      .cls-2 {
        fill: #a2a2a2;
      }

      .cls-2, .cls-3 {
        fill-rule: evenodd;
      }

      .cls-3 {
        fill: #171717;
      }
    </style>
  </defs>
  <polygon class="cls-2" points="294.96 72.39 192.27 255 314.94 255 367.91 72.39 294.96 72.39"/>
  <path id="_패스_504" data-name="패스 504" class="cls-3" d="M276.28,281.12c-13.93-.02-25.24,11.25-25.26,25.19-.02,13.93,11.25,25.24,25.19,25.26,13.93.02,25.24-11.25,25.26-25.19v-.04c0-13.92-11.27-25.2-25.19-25.23"/>
  <path id="_패스_505" data-name="패스 505" class="cls-3" d="M179.79,281.12c-13.93-.02-25.24,11.25-25.27,25.19-.02,13.93,11.25,25.24,25.19,25.27s25.24-11.25,25.27-25.19c0-.01,0-.03,0-.04,0-13.92-11.27-25.2-25.19-25.23"/>
  <path class="cls-1" d="M307.59,268.38h-159.5c-12.29,0-22.8-8.78-24.98-20.88L83.83,29.14c-.63-3.53-3.7-6.09-7.28-6.09H11.53C5.16,23.05,0,17.89,0,11.53S5.16,0,11.53,0h65.02c14.75,0,27.36,10.54,29.97,25.06l5.69,31.63h243.11c6.98,0,13.41,3.18,17.65,8.72,4.24,5.54,5.62,12.58,3.8,19.32l-44.68,164.92c-2.99,11.03-13.06,18.74-24.49,18.74ZM116.36,79.74l29.45,163.68c.2,1.11,1.16,1.91,2.29,1.91h159.5c1.05,0,1.97-.71,2.24-1.72l44.4-163.87H116.36Z"/>
  <path class="cls-1" d="M346.53,143.74h-164.95c-5.79,0-10.48-4.69-10.48-10.48s4.69-10.48,10.48-10.48h164.95c5.79,0,10.48,4.69,10.48,10.48s-4.69,10.48-10.48,10.48Z"/>
  <path class="cls-1" d="M332.59,202.75h-114.77c-5.79,0-10.48-4.69-10.48-10.48s4.69-10.48,10.48-10.48h114.77c5.79,0,10.48,4.69,10.48,10.48s-4.69,10.48-10.48,10.48Z"/>
</svg>