<?xml version="1.0" encoding="UTF-8"?>
<svg id="Layer_1" data-name="Layer 1" xmlns="http://www.w3.org/2000/svg" version="1.1" viewBox="0 0 595.28 595.28">
  <defs>
    <style>
      .cls-1 {
        fill: #ce0e2d;
        stroke-width: 0px;
      }
    </style>
  </defs>
  <path class="cls-1" d="M297.57,311.61h-122.07c-2.43,0-4.41,1.98-4.41,4.42v91.9c0,2.43,1.98,4.42,4.41,4.42h122.07c2.43,0,4.42-1.98,4.42-4.42v-91.9c0-2.43-1.98-4.42-4.42-4.42ZM295.14,405.49h-117.21v-49.03h117.21v49.03ZM295.14,349.61h-117.21v-31.15h117.21v31.15Z"/>
  <path class="cls-1" d="M302.72,188.97c.59.81.74,1.83.41,2.78l-5.46,16.01c-.61,1.79.35,3.74,2.14,4.35.36.12.73.18,1.1.18,1.46,0,2.77-.93,3.24-2.32l5.46-16.01c1.03-3.02.54-6.37-1.32-8.97-1.86-2.59-4.87-4.14-8.06-4.14h-25.58c-1.89,0-3.42,1.54-3.42,3.42s1.54,3.42,3.42,3.42h25.58c1,0,1.91.46,2.49,1.27Z"/>
  <path class="cls-1" d="M297.56,223.5c-.36-.12-.73-.19-1.11-.19-1.46,0-2.77.93-3.24,2.32l-7.26,21.23c-.61,1.79.34,3.74,2.13,4.35.36.12.73.19,1.11.19,1.46,0,2.77-.93,3.24-2.32l7.26-21.23c.61-1.79-.35-3.74-2.13-4.35Z"/>
  <path class="cls-1" d="M211.95,336.9h53.09c1.89,0,3.42-1.54,3.42-3.42s-1.54-3.42-3.42-3.42h-53.09c-1.89,0-3.42,1.54-3.42,3.42s1.54,3.42,3.42,3.42Z"/>
  <path class="cls-1" d="M486.7,311.3l-8.81-.09c-.8-2.52-1.79-4.99-2.97-7.36l6.29-6.17c1.45-1.42,2.26-3.32,2.28-5.35.02-2.03-.75-3.94-2.17-5.39l-12.17-12.41c-1.42-1.45-3.32-2.26-5.35-2.28-2.03.01-3.94.75-5.39,2.17l-6.29,6.17c-2.35-1.22-4.8-2.26-7.3-3.11l.09-8.81c.04-4.19-3.33-7.63-7.52-7.67l-5.75-.06v-74.63c0-15.02-12.21-27.31-27.22-27.4-38.1-.22-109.93-.6-162.9-.6-28.9,0-48.47.11-58.18.33-5.8.13-10.76,4-12.33,9.61l-23.21,82.75c-3.09,11.02-4.66,22.41-4.66,33.85v121.95c0,15.68,12.75,28.43,28.43,28.43h231.63c15.68,0,28.43-12.75,28.43-28.43v-13.66l4.45.04s.05,0,.08,0c2,0,3.89-.77,5.32-2.17,1.45-1.42,2.26-3.32,2.28-5.35l.09-8.81c2.52-.8,4.99-1.79,7.36-2.97l6.17,6.29c1.42,1.45,3.32,2.26,5.35,2.28,2.06.04,3.94-.75,5.39-2.17l12.41-12.17c1.45-1.42,2.26-3.32,2.28-5.35.02-2.03-.75-3.94-2.17-5.39l-6.17-6.29c1.22-2.35,2.26-4.8,3.11-7.3l8.81.09s.05,0,.08,0c4.15,0,7.55-3.36,7.6-7.52l.17-17.38c.04-4.19-3.33-7.63-7.52-7.67ZM154.39,252.87l23.21-82.75c.76-2.7,3.13-4.56,5.9-4.62,9.67-.22,29.16-.33,57.95-.33,30.25,0,66.61.12,99.34.27l-27.56,99.12c-1.64,5.9-7.06,10.02-13.19,10.02h-149.58c.64-7.34,1.95-14.61,3.94-21.71ZM322.1,428.07l-.86.12v.2h-149.67c-11.9,0-21.58-9.68-21.58-21.58v-121.95c0-1.1.03-2.2.06-3.29h149.98c9.26,0,17.46-6.23,19.94-15.15l28.07-100.97c9.66.04,18.93.09,27.53.14l-29.67,94.1c-3.05,9.67-4.6,19.72-4.6,29.87v118.59l-.06.27c-1.78,8.41-7.74,17.99-19.15,19.64ZM424.78,406.82c0,11.9-9.68,21.58-21.58,21.58h-65.79c.97-.85,1.91-1.75,2.79-2.76,4.73-5.41,7.23-12.12,8-16.59l.05-.29v-119.19c0-9.44,1.44-18.78,4.28-27.78l30.31-96.15c7.94.04,15.21.08,21.54.12,11.25.07,20.41,9.29,20.41,20.55v74.57l-4.79-.05s-.05,0-.08,0c-4.15,0-7.55,3.36-7.6,7.52l-.09,8.81c-2.52.8-4.99,1.8-7.36,2.97l-6.17-6.29c-1.42-1.45-3.32-2.26-5.35-2.28-1.99,0-3.94.75-5.39,2.17l-12.41,12.17c-1.45,1.42-2.26,3.32-2.28,5.35s.75,3.94,2.17,5.39l6.17,6.29c-1.22,2.35-2.26,4.8-3.11,7.3l-8.81-.09c-2.01-.04-3.94.75-5.39,2.17s-2.26,3.32-2.28,5.35l-.17,17.38c-.04,4.19,3.33,7.63,7.52,7.67l8.81.09c.8,2.52,1.8,4.99,2.97,7.36l-6.29,6.17c-1.45,1.42-2.26,3.32-2.28,5.35-.02,2.03.75,3.95,2.17,5.39l12.17,12.41c1.42,1.45,3.32,2.26,5.35,2.28,2.05.06,3.94-.75,5.39-2.17l6.29-6.17c2.35,1.22,4.8,2.26,7.3,3.11l-.09,8.81c-.04,4.19,3.33,7.63,7.52,7.67l6.08.06v13.73ZM487.88,336.3c0,.78-.65,1.41-1.43,1.41h-.01l-9.32-.09c-2.39,0-4.51,1.51-5.27,3.81-.81,2.47-1.84,4.89-3.06,7.18-1.14,2.14-.77,4.73.91,6.44l6.52,6.65c.36.37.41.79.41,1.01,0,.22-.06.64-.43,1l-12.41,12.17c-.56.55-1.47.54-2.02-.02l-6.52-6.65c-1.68-1.71-4.26-2.13-6.42-1.03-2.32,1.17-4.76,2.16-7.24,2.92-2.32.71-3.89,2.8-3.91,5.19l-.09,9.31c0,.51-.27.85-.43,1-.16.15-.48.39-1.01.41l-4.51-.04-6.85-.07-6.02-.06c-.79,0-1.42-.65-1.41-1.44l.09-9.31c.02-2.4-1.51-4.52-3.81-5.27-2.47-.81-4.89-1.84-7.19-3.06-2.14-1.14-4.73-.77-6.44.91l-6.65,6.52c-.37.36-.79.4-1.01.41-.22,0-.64-.06-1-.43l-12.17-12.41c-.36-.37-.41-.79-.41-1.01,0-.22.06-.65.43-1.01l6.65-6.52c1.71-1.68,2.13-4.26,1.03-6.42-1.17-2.32-2.16-4.76-2.92-7.24-.71-2.32-2.8-3.89-5.2-3.91l-9.31-.09c-.79,0-1.42-.65-1.41-1.44l.17-17.38c0-.51.27-.85.43-1,.16-.15.53-.42,1.01-.41l9.31.09c2.39,0,4.51-1.51,5.27-3.81.81-2.47,1.84-4.89,3.06-7.19,1.14-2.14.77-4.73-.91-6.44l-6.52-6.65c-.36-.37-.41-.79-.41-1.01,0-.22.06-.65.43-1.01l12.41-12.17c.37-.36.78-.41,1.01-.41.22,0,.64.06,1,.43l6.52,6.65c1.68,1.71,4.26,2.13,6.42,1.03,2.32-1.17,4.76-2.16,7.24-2.92,2.32-.71,3.89-2.8,3.91-5.19l.09-9.31c0-.79.64-1.42,1.44-1.41l4.85.05,6.85.07,5.69.06c.79,0,1.42.65,1.41,1.44l-.09,9.31c-.02,2.4,1.51,4.51,3.81,5.27,2.47.81,4.89,1.84,7.19,3.06,2.14,1.14,4.73.77,6.44-.91l6.65-6.52c.37-.36.8-.39,1.01-.41.22,0,.65.06,1.01.43l12.17,12.41c.55.56.54,1.47-.02,2.02l-6.65,6.52c-1.71,1.68-2.13,4.26-1.03,6.42,1.17,2.32,2.16,4.76,2.92,7.24.71,2.32,2.8,3.89,5.19,3.91l9.31.09c.51,0,.85.27,1,.43.15.16.41.5.41,1.01l-.17,17.38Z"/>
  <path class="cls-1" d="M431.62,294.91c-.93-.1-1.87-.17-2.82-.2-1.35-.03-2.7.03-4.02.16-7.12.71-13.78,3.74-19.04,8.76-6.25,5.96-9.8,13.99-10,22.62-.4,16.97,12.43,31.23,29.04,32.9.82.08,1.65.15,2.49.17.26,0,.52,0,.78,0,1.21,0,2.4-.07,3.58-.2,15.81-1.76,28.32-15,28.71-31.34.2-8.63-2.96-16.82-8.92-23.06-5.3-5.56-12.25-8.98-19.79-9.81ZM431.62,352.92c-1.37.19-2.78.27-4.21.23-.89-.02-1.77-.09-2.64-.2-13.14-1.64-23.2-13.04-22.87-26.56.17-6.98,3.04-13.48,8.09-18.3,4.11-3.92,9.25-6.34,14.78-7.02,1.07-.13,2.15-.21,3.24-.21.21,0,.42,0,.64,0,1,.02,1.99.11,2.97.24,5.84.8,11.2,3.52,15.33,7.85,4.82,5.05,7.38,11.68,7.22,18.66-.31,12.98-10.06,23.59-22.54,25.28Z"/>
</svg>