<?xml version="1.0" encoding="UTF-8"?>
<svg id="Layer_1" data-name="Layer 1" xmlns="http://www.w3.org/2000/svg" xmlns:xlink="http://www.w3.org/1999/xlink" version="1.1" viewBox="0 0 101.3 107.16">
  <defs>
    <style>
      .cls-1 {
        clip-path: url(#clippath);
      }

      .cls-2 {
        stroke-width: 0px;
      }

      .cls-2, .cls-3 {
        fill: none;
      }

      .cls-3 {
        stroke: #c02026;
        stroke-linecap: round;
        stroke-linejoin: round;
        stroke-width: 3px;
      }
    </style>
    <clipPath id="clippath">
      <rect class="cls-2" x="9.04" y="6.09" width="83.16" height="93.38"/>
    </clipPath>
  </defs>
  <g class="cls-1">
    <g id="_그룹_60" data-name="그룹 60">
      <path id="_패스_112" data-name="패스 112" class="cls-3" d="M18.93,35.53c-2.15.37-4.18,2.4-5.52,4.21-2.3,3.12-3.07,8.36-3.44,13.8-.18,2.58,1.77,4.81,4.35,4.99.1,0,.21.01.31.01h9.47"/>
      <path id="_패스_113" data-name="패스 113" class="cls-3" d="M26.99,35.5h0c2.39.2,4.63,2.5,6.06,4.53.4.57.74,1.18,1.02,1.82"/>
      <path id="_패스_114" data-name="패스 114" class="cls-3" d="M30.01,29.5c-.14,3.91-3.41,6.96-7.32,6.82-3.91-.14-6.96-3.41-6.82-7.32.13-3.81,3.26-6.83,7.07-6.83,3.98.07,7.14,3.35,7.07,7.32Z"/>
      <path id="_패스_115" data-name="패스 115" class="cls-3" d="M67.2,41.8c.32-.73.71-1.42,1.18-2.06,1.34-1.81,3.37-3.84,5.52-4.21"/>
      <path id="_패스_116" data-name="패스 116" class="cls-3" d="M81.97,35.5h0c2.4.2,4.63,2.5,6.06,4.53,2.18,3.1,2.89,8.23,3.23,13.52.17,2.58-1.79,4.81-4.37,4.97-.1,0-.2,0-.3,0h-9.34"/>
      <path id="_패스_117" data-name="패스 117" class="cls-3" d="M84.99,29.5c-.14,3.91-3.41,6.96-7.32,6.83-3.91-.14-6.96-3.41-6.83-7.32.13-3.81,3.26-6.83,7.07-6.83,3.97.07,7.14,3.35,7.07,7.32Z"/>
      <path id="_패스_118" data-name="패스 118" class="cls-3" d="M64.2,39.77c0-.17,0-.34,0-.51-.35-5.44-1.08-10.71-3.32-13.9-1.47-2.09-3.77-4.45-6.23-4.66h0"/>
      <path id="_패스_119" data-name="패스 119" class="cls-3" d="M37.14,39.78c0-.18,0-.36,0-.54.38-5.59,1.17-10.98,3.53-14.19,1.37-1.86,3.45-3.94,5.67-4.31"/>
      <path id="_패스_120" data-name="패스 120" class="cls-3" d="M57.75,14.53c.13,4.01-3.01,7.38-7.03,7.51-4.01.13-7.38-3.01-7.51-7.03,0-.16,0-.32,0-.48-.13-4.01,3.01-7.38,7.03-7.51,4.01-.13,7.38,3.01,7.51,7.03,0,.16,0,.32,0,.48Z"/>
      <path id="_패스_121" data-name="패스 121" class="cls-3" d="M63.11,87.05c8.93-4.64,14.54-13.87,14.53-23.94,0-1.53-.13-3.06-.39-4.57-1.36-7.88-6.14-14.76-13.06-18.77h0c-8.37-4.85-18.69-4.84-27.06,0-1.07.62-2.1,1.31-3.07,2.07-5.29,4.13-8.84,10.07-9.98,16.68h0c-1.98,11.51,3.66,22.98,13.98,28.42"/>
      <path id="_패스_122" data-name="패스 122" class="cls-3" d="M57.38,73.78c-2.88,0-5.51,1.65-6.76,4.25-1.79-3.74-6.27-5.31-10.01-3.52-2.61,1.25-4.26,3.89-4.26,6.78,0,9.01,14.26,17.27,14.26,17.27,0,0,14.26-8.26,14.26-17.27,0-4.14-3.36-7.5-7.5-7.5Z"/>
      <path id="_패스_123" data-name="패스 123" class="cls-3" d="M36.08,70.04c-.32-2.24-.48-4.5-.47-6.77,0-14.93,6.72-27.03,15.01-27.03s15.01,12.1,15.01,27.03c0,2.01-.12,4.02-.37,6.01"/>
      <line id="_선_22" data-name="선 22" class="cls-3" x1="24.35" y1="63.27" x2="76.89" y2="63.27"/>
      <line id="_선_23" data-name="선 23" class="cls-3" x1="50.62" y1="36.24" x2="50.62" y2="69.27"/>
    </g>
  </g>
</svg>