<?xml version="1.0" encoding="UTF-8"?>
<svg id="Layer_1" data-name="Layer 1" xmlns="http://www.w3.org/2000/svg" version="1.1" viewBox="0 0 595.28 595.28">
  <defs>
    <style>
      .cls-1 {
        fill: none;
        stroke: #ce0e2d;
        stroke-linecap: round;
        stroke-linejoin: round;
        stroke-width: 7.47px;
      }
    </style>
  </defs>
  <g>
    <line class="cls-1" x1="418.81" y1="205" x2="322.13" y2="149.19"/>
    <line class="cls-1" x1="439.98" y1="354.05" x2="439.98" y2="240.81"/>
    <line class="cls-1" x1="418.73" y1="389.71" x2="322.13" y2="445.47"/>
    <line class="cls-1" x1="280.29" y1="445.47" x2="183.72" y2="389.71"/>
    <line class="cls-1" x1="162.48" y1="354.05" x2="162.48" y2="240.81"/>
    <line class="cls-1" x1="280.29" y1="149.19" x2="183.64" y2="205"/>
    <line class="cls-1" x1="419.11" y1="366.05" x2="372.91" y2="339.18"/>
    <line class="cls-1" x1="225.53" y1="253.36" x2="183.34" y2="228.81"/>
    <polyline class="cls-1" points="183.34 366.05 221.72 343.71 230.81 338.43"/>
    <polyline class="cls-1" points="372.91 255.68 398.46 240.81 419.08 228.81"/>
    <line class="cls-1" x1="301.21" y1="433.39" x2="301.21" y2="415.11"/>
    <line class="cls-1" x1="301.21" y1="184.33" x2="301.21" y2="161.27"/>
    <circle class="cls-1" cx="301.22" cy="137.11" r="24.15" transform="translate(-23.6 73.67) rotate(-13.42)"/>
    <circle class="cls-1" cx="439.97" cy="216.66" r="24.15" transform="translate(69.44 537.94) rotate(-67.15)"/>
    <circle class="cls-1" cx="439.97" cy="378.21" r="24.15"/>
    <circle class="cls-1" cx="301.21" cy="457.54" r="24.15" transform="translate(-237.4 557.4) rotate(-67.15)"/>
    <circle class="cls-1" cx="162.47" cy="378.21" r="24.15"/>
    <circle class="cls-1" cx="162.47" cy="216.66" r="24.15" transform="translate(-100.28 282.22) rotate(-67.15)"/>
  </g>
  <g>
    <path class="cls-1" d="M299.77,283.33l-7.99-6.13c-13.55-9.82-22.37-25.76-22.37-43.78v-23.4c0-7.23-5.86-13.09-13.09-13.09h-.03c-7.23,0-13.09,5.86-13.09,13.09v15.62l3.21,36.02c2.49,8.34,6.35,16.09,11.32,22.98,1.79,2.48,3.73,4.85,5.79,7.1l7.34,7.13"/>
    <path class="cls-1" d="M331.44,298.87l5.21,4.68c2.86,2.88,5.49,5.97,7.87,9.27,9.15,12.68,14.53,28.25,14.53,45.06v26.76c0,7.5-6.3,13.52-13.9,13.07-7-.42-12.28-6.57-12.28-13.58v-20.06c0-18.69-9.5-35.16-23.94-44.86l-7.61-4.38"/>
    <line class="cls-1" x1="330.17" y1="347.19" x2="272.26" y2="347.19"/>
    <line class="cls-1" x1="332.86" y1="374.37" x2="269.57" y2="374.37"/>
    <line class="cls-1" x1="271.48" y1="247.94" x2="331.05" y2="247.94"/>
    <line class="cls-1" x1="269.41" y1="220.76" x2="333.02" y2="220.76"/>
    <path class="cls-1" d="M346.12,196.93c-7.23,0-13.09,5.86-13.09,13.09v23.4c0,23.66-15.2,43.77-36.35,51.1-.2.07-.37.12-.57.19h0c-2.75.9-5.43,1.96-8.04,3.18-9.93,4.6-18.72,11.28-25.81,19.44-1.53,1.76-2.98,3.59-4.34,5.49-9.15,12.68-14.53,28.25-14.53,45.06v26.76c0,7.23,5.86,13.09,13.09,13.09s13.09-5.86,13.09-13.09v-20.58c0-23.69,15.25-43.84,36.48-51.13v-.02c2.63-.85,5.21-1.85,7.72-2.98,12.41-5.58,23.07-14.35,30.95-25.28,9.15-12.66,14.53-28.23,14.53-45.06v-29.56c0-7.23-5.86-13.09-13.09-13.09h-.03Z"/>
  </g>
</svg>