<?xml version="1.0" encoding="UTF-8"?>
<svg id="Layer_1" data-name="Layer 1" xmlns="http://www.w3.org/2000/svg" viewBox="0 0 1107.05 904.81">
  <defs>
    <style>
      .cls-1 {
        fill: none;
      }

      .cls-1, .cls-2 {
        stroke-width: 0px;
      }

      .cls-2 {
        fill: #e6e7e8;
      }
    </style>
  </defs>
  <path class="cls-1" d="M569.2,88.16c54.03-7.6,107.5,21.75,130.43,71.26,7.65,16.47,11.61,34.41,11.59,52.57h.01c0,122.43,45.63,192.59,203.06,192.58h-.02c75.31,0,138.51,51.79,155.94,121.7L948.66,0l-389.46,89.97c.78-.17,1.56-.35,2.35-.51,2.54-.51,5.1-.95,7.66-1.3Z"/>
  <path class="cls-1" d="M199.06,290.35c3.82,10.63,5.59,21.89,5.2,33.18l.09-.09c-1.65,56.21,16.84,97.24,53.06,120.57,38.55,24.84,88.53,22.03,126.48-3.72,57.77-39.18,98.16-112.79,79.86-203.62l.05.03c-13.37-66.2,28.25-130.73,93.43-146.28l-424.36,98.03v44.74c29.51,5.97,55.28,26.76,66.21,57.16Z"/>
  <path class="cls-1" d="M951.75,721.54l155.3-35.87-35.58-154.01c2.31,10.83,3.53,22.07,3.53,33.59.01,74.82-51.49,139.15-123.25,156.29Z"/>
  <path class="cls-1" d="M940.02,723.89c-78.86,12.93-156.41-35.5-179.48-112.01-5.85-19.31-8.02-39.56-6.4-59.67,7.35-102.16-18.64-159.07-71.63-188.73-59.67-33.4-134.76-27.19-187.85,15.92-52.19,42.37-76.2,107.91-69.52,165.94l-.03-.02c5.19,44.88-23.98,86.57-67.93,97.07-36.63,8.74-74.82-7.74-95.69-39.09-9.97-14.88-14.93-32.55-14.18-50.44l-.09.09c2.41-82.19-38.22-131.96-114.37-141.35v318.04-318.04c-6.53-.8-13.32-1.31-20.36-1.52l.09-.09c-42.69-1.18-78.56-32.45-85.55-74.58-7.07-42.25,17.73-84.5,58.15-98.69,15.86-5.7,32.28-6.63,47.67-3.51v-44.74L0,219.15l158.39,685.66,791.21-182.77c-3.16.71-6.35,1.34-9.59,1.86Z"/>
  <path class="cls-2" d="M463.79,236.71l-.05-.03c18.3,90.83-22.09,164.44-79.86,203.62-37.96,25.74-87.93,28.56-126.48,3.72-36.21-23.33-54.7-64.36-53.06-120.57l-.09.09c.39-11.29-1.38-22.55-5.2-33.18-10.93-30.4-36.7-51.19-66.21-57.16v178.39c76.15,9.39,116.78,59.16,114.37,141.35l.09-.09c-.75,17.89,4.22,35.56,14.18,50.44,20.86,31.35,59.06,47.83,95.69,39.09,43.95-10.5,73.12-52.18,67.93-97.07l.03.02c-6.68-58.03,17.33-123.57,69.52-165.94,53.09-43.11,128.18-49.32,187.85-15.92,52.99,29.66,78.98,86.58,71.63,188.73-1.63,20.12.54,40.36,6.4,59.67,23.07,76.51,100.62,124.94,179.48,112.01,3.23-.52,6.43-1.15,9.59-1.86l2.15-.5c71.77-17.14,123.27-81.48,123.25-156.29,0-11.52-1.23-22.76-3.53-33.59l-1.24-5.37c-17.43-69.91-80.64-121.71-155.94-121.69h.02c-157.43,0-203.06-70.17-203.06-192.61h-.01c.01-18.15-3.94-36.09-11.59-52.55-22.93-49.52-76.4-78.87-130.43-71.26-2.57.35-5.12.79-7.66,1.3-.79.16-1.57.33-2.35.51l-1.98.46c-65.18,15.55-106.8,80.08-93.43,146.28Z"/>
</svg>