<?xml version="1.0" encoding="UTF-8"?>
<svg id="Layer_1" data-name="Layer 1" xmlns="http://www.w3.org/2000/svg" xmlns:xlink="http://www.w3.org/1999/xlink" version="1.1" viewBox="0 0 101.3 107.16">
  <defs>
    <style>
      .cls-1 {
        clip-path: url(#clippath);
      }

      .cls-2 {
        stroke-width: 0px;
      }

      .cls-2, .cls-3 {
        fill: none;
      }

      .cls-3 {
        stroke: #6c6c6c;
        stroke-linecap: round;
        stroke-linejoin: round;
        stroke-width: 3px;
      }
    </style>
    <clipPath id="clippath">
      <rect class="cls-2" x="7.4" y="9.57" width="86.45" height="86.45"/>
    </clipPath>
  </defs>
  <g id="_그룹_59" data-name="그룹 59">
    <g class="cls-1">
      <g id="_그룹_58" data-name="그룹 58">
        <path id="_패스_105" data-name="패스 105" class="cls-3" d="M11.74,61.96l6.2-.06c.7,0,1.33.45,1.54,1.12.58,1.76,1.31,3.47,2.18,5.11.34.62.23,1.38-.26,1.89l-4.34,4.43c-1.16,1.18-1.14,3.09.04,4.25,0,0,0,0,0,0l8.27,8.11c1.18,1.16,3.09,1.14,4.25-.04,0,0,0,0,0,0l4.34-4.43c.5-.5,1.26-.62,1.88-.29,1.65.84,3.38,1.53,5.15,2.07.67.2,1.14.81,1.15,1.52l.06,6.2c.02,1.66,1.37,2.99,3.03,2.97l11.58-.11c1.66-.01,2.99-1.37,2.98-3.02h0s-.06-6.2-.06-6.2c0-.7.45-1.33,1.12-1.54,1.76-.58,3.47-1.31,5.11-2.18.62-.34,1.38-.23,1.89.26l4.43,4.34c1.18,1.16,3.09,1.14,4.25-.04,0,0,0,0,0,0l8.11-8.27c1.16-1.18,1.14-3.09-.04-4.25,0,0,0,0,0,0l-4.43-4.34c-.5-.5-.62-1.26-.29-1.88.84-1.65,1.53-3.38,2.07-5.15.2-.68.81-1.15,1.52-1.16l6.2-.06c1.66-.02,2.99-1.37,2.97-3.03l-.11-11.58c-.01-1.66-1.37-2.99-3.02-2.98,0,0,0,0,0,0l-6.2.06c-.7,0-1.33-.45-1.54-1.12-.58-1.76-1.31-3.47-2.18-5.11-.34-.62-.23-1.38.26-1.89l4.34-4.43c1.16-1.18,1.14-3.09-.04-4.25,0,0,0,0,0,0l-8.27-8.11c-1.18-1.16-3.09-1.14-4.25.04,0,0,0,0,0,0l-4.34,4.43c-.5.5-1.26.62-1.88.29-1.65-.84-3.38-1.53-5.15-2.07-.67-.2-1.14-.81-1.15-1.52l-.06-6.2c-.01-1.66-1.36-2.99-3.02-2.98,0,0-.01,0-.02,0l-11.58.11c-1.66.02-2.99,1.37-2.97,3.03l.06,6.2c0,.7-.45,1.33-1.12,1.54-1.76.58-3.47,1.31-5.11,2.18-.62.34-1.38.23-1.89-.26l-4.43-4.34c-1.18-1.16-3.09-1.14-4.25.04,0,0,0,0,0,0l-8.11,8.27c-1.16,1.18-1.14,3.09.04,4.25,0,0,0,0,0,0l4.43,4.34c.5.5.62,1.26.29,1.88-.84,1.65-1.53,3.38-2.07,5.15-.2.67-.81,1.14-1.52,1.15l-6.2.06c-1.66.02-2.99,1.38-2.98,3.03,0,0,0,0,0,0l.11,11.58c.02,1.66,1.38,2.99,3.03,2.97Z"/>
        <line id="_선_19" data-name="선 19" class="cls-3" x1="60.27" y1="43.46" x2="60.27" y2="36.94"/>
        <path id="_패스_106" data-name="패스 106" class="cls-3" d="M63.96,33.13c0,2.04-1.65,3.69-3.69,3.69s-3.69-1.65-3.69-3.69c0-2.04,1.65-3.69,3.69-3.69s3.69,1.65,3.69,3.69h0Z"/>
        <line id="_선_20" data-name="선 20" class="cls-3" x1="39.75" y1="43.46" x2="39.75" y2="36.94"/>
        <line id="_선_21" data-name="선 21" class="cls-3" x1="60.27" y1="43.46" x2="60.27" y2="36.94"/>
        <path id="_패스_107" data-name="패스 107" class="cls-3" d="M69.3,53.15h1.97c2.65.11,4.71,2.34,4.6,4.99-.1,2.5-2.1,4.5-4.6,4.6h-1.97"/>
        <path id="_패스_108" data-name="패스 108" class="cls-3" d="M32,62.74h-2.04c-2.65-.11-4.71-2.34-4.6-4.99.1-2.5,2.1-4.5,4.6-4.6h2.04"/>
        <path id="_패스_109" data-name="패스 109" class="cls-3" d="M43.43,33.13c0,2.04-1.65,3.69-3.69,3.69s-3.69-1.65-3.69-3.69,1.65-3.69,3.69-3.69h0c2.04,0,3.69,1.65,3.69,3.69Z"/>
        <path id="_사각형_19471" data-name="사각형 19471" class="cls-3" d="M45.66,43.46h9.98c7.54,0,13.65,6.11,13.65,13.65h0c0,7.54-6.11,13.65-13.65,13.65h-9.98c-7.54,0-13.65-6.11-13.65-13.65h0c0-7.54,6.11-13.65,13.65-13.65Z"/>
        <path id="_패스_110" data-name="패스 110" class="cls-3" d="M61.51,54.69c0,2.04-1.65,3.69-3.69,3.69-2.04,0-3.69-1.65-3.69-3.69,0-2.04,1.65-3.69,3.69-3.69s3.69,1.65,3.69,3.69h0Z"/>
        <path id="_패스_111" data-name="패스 111" class="cls-3" d="M47.12,54.69c0,2.04-1.65,3.69-3.69,3.69-2.04,0-3.69-1.65-3.69-3.69,0-2.04,1.65-3.69,3.69-3.69s3.69,1.65,3.69,3.69h0Z"/>
      </g>
    </g>
  </g>
</svg>