<?xml version="1.0" encoding="UTF-8"?>
<svg id="Layer_1" data-name="Layer 1" xmlns="http://www.w3.org/2000/svg" xmlns:xlink="http://www.w3.org/1999/xlink" viewBox="0 0 1032.92 844.22">
  <defs>
    <style>
      .cls-1 {
        clip-path: url(#clippath);
      }

      .cls-2 {
        fill: none;
      }

      .cls-2, .cls-3 {
        stroke-width: 0px;
      }

      .cls-3 {
        fill: #d8d8d8;
      }
    </style>
    <clipPath id="clippath">
      <rect class="cls-2" x="62.24" y="93.81" width="908.45" height="656.6" transform="translate(-81.76 127.08) rotate(-13.01)"/>
    </clipPath>
  </defs>
  <g id="_그룹_40" data-name="그룹 40">
    <g class="cls-1">
      <g id="_그룹_35" data-name="그룹 35">
        <path id="_패스_84" data-name="패스 84" class="cls-3" d="M709.61,570.91c-5.46-18.02-7.49-36.91-5.97-55.68,6.86-95.32-17.39-148.42-66.83-176.1-55.67-31.17-125.73-25.36-175.27,14.85-48.69,39.53-71.1,100.68-64.86,154.82l-.03-.02c4.84,41.88-22.37,80.77-63.38,90.57-34.18,8.15-69.81-7.22-89.28-36.47-9.3-13.88-13.93-30.37-13.23-47.06l-.08.08c2.44-83.26-42.45-130.87-125.71-133.31l.08-.08c-39.83-1.1-73.3-30.27-79.82-69.58-6.59-39.42,16.54-78.84,54.25-92.09,43.16-15.52,90.74,6.89,106.25,50.06,3.57,9.92,5.21,20.42,4.85,30.96l.08-.08c-1.54,52.45,15.71,90.73,49.5,112.5,35.97,23.17,82.6,20.55,118.01-3.47,53.9-36.56,91.59-105.24,74.51-189.99l.04.03c-12.75-63.12,28.08-124.63,91.2-137.39,2.37-.48,4.76-.88,7.15-1.21,50.41-7.09,100.31,20.29,121.7,66.49,7.14,15.36,10.83,32.11,10.82,49.05h.01c0,114.23,42.58,179.7,189.47,179.69h-.02c82.8,0,149.94,67.11,149.95,149.91.01,73.56-53.34,136.26-125.95,148.02-73.58,12.07-145.94-33.12-167.46-104.51"/>
      </g>
    </g>
  </g>
</svg>