<?xml version="1.0" encoding="UTF-8"?>
<svg id="Layer_1" data-name="Layer 1" xmlns="http://www.w3.org/2000/svg" xmlns:xlink="http://www.w3.org/1999/xlink" version="1.1" viewBox="0 0 101.3 107.16">
  <defs>
    <style>
      .cls-1 {
        clip-path: url(#clippath);
      }

      .cls-2 {
        stroke-width: 0px;
      }

      .cls-2, .cls-3 {
        fill: none;
      }

      .cls-3 {
        stroke: #232d42;
        stroke-linecap: round;
        stroke-linejoin: round;
        stroke-width: 3px;
      }
    </style>
    <clipPath id="clippath">
      <rect class="cls-2" x="12.23" y="13.88" width="76.8" height="78.1"/>
    </clipPath>
  </defs>
  <g id="_그룹_55" data-name="그룹 55">
    <g class="cls-1">
      <g id="_그룹_54" data-name="그룹 54">
        <path id="_패스_89" data-name="패스 89" class="cls-3" d="M60.82,56.44c10.78-5.61,14.97-18.89,9.36-29.66s-18.89-14.97-29.66-9.36c-10.78,5.61-14.97,18.89-9.36,29.66,2.06,3.97,5.29,7.21,9.24,9.3"/>
        <path id="_패스_90" data-name="패스 90" class="cls-3" d="M56.14,45.62c-2.35,0-4.49,1.35-5.51,3.47-1.46-3.05-5.12-4.33-8.17-2.86-2.12,1.02-3.47,3.17-3.47,5.52,0,7.35,11.64,14.09,11.64,14.09,0,0,11.64-6.74,11.64-14.09,0-3.38-2.74-6.12-6.12-6.12h0Z"/>
        <path id="_패스_91" data-name="패스 91" class="cls-3" d="M38.76,42.57c-.26-1.83-.39-3.68-.39-5.52,0-12.18,5.48-22.05,12.25-22.05s12.25,9.87,12.25,22.05c0,1.64-.1,3.27-.3,4.9"/>
        <line id="_선_17" data-name="선 17" class="cls-3" x1="29.19" y1="37.05" x2="72.06" y2="37.05"/>
        <line id="_선_18" data-name="선 18" class="cls-3" x1="50.62" y1="15" x2="50.62" y2="41.94"/>
        <path id="_패스_92" data-name="패스 92" class="cls-3" d="M70.83,90.94v-1.54c0-.98.39-1.91,1.08-2.6l14.28-14.28c1.15-1.15,1.79-2.71,1.79-4.33v-29.76c0-2.12-1.72-3.83-3.83-3.83-1.99,0-3.65,1.52-3.82,3.5l-1.57,18.36-.38.22c-1.44-.57-3.08-.22-4.18.87l-4.46,4.46c-1.26,1.26-2.98,1.97-4.76,1.97h-.04c-2.11,0-4.14.84-5.63,2.33l-6.9,6.9c-1.15,1.15-1.79,2.71-1.79,4.33v13.39"/>
        <path id="_패스_93" data-name="패스 93" class="cls-3" d="M50.62,90.94v-13.38c0-1.62-.65-3.18-1.79-4.33l-6.9-6.9c-1.49-1.49-3.52-2.33-5.63-2.33h-.03c-1.79,0-3.5-.71-4.76-1.97l-4.46-4.46c-1.06-1.06-2.63-1.42-4.04-.93l-.53-.17-1.57-18.36c-.17-1.98-1.83-3.5-3.82-3.5h0c-2.12,0-3.83,1.72-3.83,3.83h0v29.76c0,1.62.65,3.18,1.79,4.33l14.28,14.28c.69.69,1.08,1.62,1.08,2.6v1.54"/>
        <path id="_패스_94" data-name="패스 94" class="cls-3" d="M79.05,57.03c1.82,1.16,2.35,3.57,1.19,5.38-.15.24-.33.46-.53.66l-10.72,10.72"/>
        <path id="_패스_95" data-name="패스 95" class="cls-3" d="M22.51,56.85c-1.92.99-2.67,3.34-1.68,5.25.18.36.42.69.71.97l10.72,10.72"/>
      </g>
    </g>
  </g>
</svg>