<?xml version="1.0" encoding="UTF-8"?>
<svg id="Layer_1" data-name="Layer 1" xmlns="http://www.w3.org/2000/svg" version="1.1" viewBox="0 0 595.28 595.28">
  <defs>
    <style>
      .cls-1 {
        fill: none;
        stroke: #ce0e2d;
        stroke-linecap: round;
        stroke-linejoin: round;
        stroke-width: 7.47px;
      }
    </style>
  </defs>
  <g>
    <path class="cls-1" d="M170.56,230.15l-9.29-5.55-9.44-5.64c3.59-6.05,1.61-13.91-4.44-17.5-6.05-3.62-13.91-1.64-17.53,4.41l-15.07,25.33c-3.62,6.08-1.64,13.91,4.41,17.53,6.08,3.62,13.91,1.64,17.53-4.44l11.77,7.01"/>
    <path class="cls-1" d="M156.71,256.21l-8.21-4.91c-2.72,9.03-4.18,18.58-4.18,28.48,0,11.6,2.02,22.76,5.73,33.1"/>
    <path class="cls-1" d="M157.56,307.8l-7.51,5.08-13.7,9.26c-3.97-5.84-11.89-7.39-17.76-3.45-5.84,3.94-7.36,11.89-3.42,17.73l16.51,24.45c3.94,5.84,11.89,7.39,17.73,3.42,5.84-3.94,7.39-11.89,3.45-17.73l11.28-7.62"/>
    <path class="cls-1" d="M173.8,332.4l-9.67,6.54c14.14,18.64,34.82,32.17,58.58,37.02v-32.57l.03,32.57h-.03v10.87c-7.07,0-12.8,5.73-12.8,12.77s5.73,12.8,12.8,12.8h29.48c7.04,0,12.77-5.73,12.77-12.8s-5.73-12.77-12.77-12.77v-43.44l.03,32.57c23.75-4.85,44.46-18.38,58.58-37.02l8.82-16.3"/>
    <path class="cls-1" d="M252.21,183.58c25.45,5.2,47.33,20.27,61.44,41.02l7.3,15.25"/>
    <path class="cls-1" d="M252.21,214.9v-43.44c7.04,0,12.77-5.7,12.77-12.77s-5.73-12.77-12.77-12.77h-29.48c-7.07,0-12.8,5.7-12.8,12.77s5.73,12.77,12.8,12.77v12.12"/>
    <path class="cls-1" d="M222.73,214.9v-31.32c-25.48,5.2-47.33,20.27-61.47,41.02"/>
  </g>
  <path class="cls-1" d="M329.34,233.98v-26.31c0-7.09,5.75-12.85,12.85-12.85h83.38c7.09,0,12.85,5.75,12.85,12.85v26.31"/>
  <path class="cls-1" d="M330.79,233.98h107.39c6.17,0,11.19,5.01,11.19,11.19v189.61c0,35.81-29.07,64.88-64.88,64.88h0c-35.81,0-64.88-29.07-64.88-64.88v-189.61c0-6.17,5.01-11.19,11.19-11.19Z"/>
  <line class="cls-1" x1="384.48" y1="157" x2="384.48" y2="345.63"/>
  <rect class="cls-1" x="306.28" y="110.93" width="156.47" height="46.07" rx="9" ry="9"/>
  <line class="cls-1" x1="345.61" y1="157" x2="345.61" y2="110.93"/>
  <path class="cls-1" d="M396.36,345.63s17.42,35.56,17.42,51.41-12.91,28.69-28.83,28.69-28.83-12.85-28.83-28.69,17.42-51.41,17.42-51.41h22.82Z"/>
</svg>