<svg width="740" height="175" viewBox="0 0 740 175" fill="none" xmlns="http://www.w3.org/2000/svg">
<path d="M295.62 35.58C285.48 35.58 275.4 38.6 267.03 44.13V39.16H245.49V173.6H267.03V134.4C275.62 140.11 285.93 143.36 295.62 143.36C319.76 143.36 345.75 129.27 345.75 98.33V80.6C345.75 49.67 319.76 35.58 295.62 35.58ZM267.02 80.6C267.02 67.82 280.11 57.02 295.61 57.02C309.38 57.02 324.2 64.4 324.2 80.6V98.32C324.2 114.52 309.38 121.9 295.61 121.9C280.91 121.9 267.02 110.44 267.02 98.32V80.6Z" fill="#5C5C5C"/>
<path d="M375.13 0.809998C367.07 0.809998 361 7.1 361 15.44C361 23.78 367.08 30.06 375.13 30.06C383.11 30.06 389.12 23.77 389.12 15.44C389.12 7.1 383.1 0.809998 375.13 0.809998Z" fill="#5C5C5C"/>
<path d="M385.89 39.15H364.21V140.75H385.89V39.15Z" fill="#5C5C5C"/>
<path d="M695.82 35.58C685.52 35.58 675.83 38.49 667.67 44V39.15H646.13V140.75H667.67V86.78C667.67 67.24 680.95 57.02 694.07 57.02C713.47 57.02 717.54 71.97 717.54 84.5V140.74H739.08V81.57C739.08 53.2 722.5 35.58 695.82 35.58Z" fill="#5C5C5C"/>
<path d="M92.69 84.57C101.25 77.75 105.76 67.58 105.76 55.08V50.2C105.76 28.67 89.24 13.63 65.58 13.63H0.959991V140.75H22.5V93.93H61.97C72.34 93.76 74.16 96.14 75.15 97.46C75.22 97.55 82.77 106.93 88.57 137.8L89.13 140.78H111.68L110.92 136.49C110.65 134.93 104.17 98.76 92.69 84.57ZM84.22 50.69V55.57C84.22 66.16 76.1 72.49 62.51 72.49H22.5V35.08H61.48C71.85 35.07 84.22 37.78 84.22 50.69Z" fill="#5C5C5C"/>
<path d="M223.03 118.15V72.49C223.03 50.16 207.04 35.38 175.49 35.38C140.44 35.38 125.82 51.33 125.82 67.6V74.06H147.39V69.03C147.39 57.4 171.16 56.81 175.49 56.81C197.57 56.81 201.45 64.21 201.45 72.48V77.2C198.37 77.52 195.4 77.69 193.93 77.69H178.43C172.07 77.69 157.58 76.49 146.03 80.62C131.54 85.79 125.44 95.2 125.44 109.53V111C125.44 130.55 143.23 143.19 170.76 143.19C183.09 143.19 194.8 140.22 203.9 134.81C203.94 134.92 203.98 135.03 204.01 135.13L205.99 140.58H228.85L224.71 129.42C223.74 126.77 223.03 122.03 223.03 118.15ZM147.02 109.52C147.02 105.61 147.02 97.47 177.06 97.47L192.47 97.31C194.83 97.31 198.13 97.09 201.46 96.71V107.75C201.46 111.35 190.91 121.76 170.77 121.76C166.8 121.76 147.02 121.24 147.02 111.01V109.52Z" fill="#5C5C5C"/>
<path d="M602.46 111.97C596.82 119.19 585.93 121.91 577.14 121.91C565.84 121.91 547.8 116.01 546.43 100.27H627.68L627.98 96.95C629.44 80.94 626.79 68.89 626.23 66.59C620.79 47.75 601.52 35.58 577.13 35.58C551.13 35.58 524.8 51.05 524.8 80.61V98.33C524.8 127.89 551.12 143.36 577.13 143.36C602 143.36 620.83 131.18 626.33 111.98H602.46V111.97ZM577.14 57.02C590.58 57.02 606.25 62.7 606.46 78.66H546.43C547.8 62.92 565.84 57.02 577.14 57.02Z" fill="#5C5C5C"/>
<path d="M485.73 39.15V44.58C476.9 38.84 466.11 35.57 455.82 35.57C430.25 35.57 404.37 51.04 404.37 80.6V94.74C404.37 124.3 430.25 139.77 455.82 139.77C465.72 139.77 476.77 136.32 485.72 130.48C485.53 141.1 480.34 153.44 457.28 153.44C447.23 153.44 431.83 150.08 429.25 140.93H407.41L407.42 141.08C409.49 164.3 434.71 174.88 457.27 174.88C488.57 174.88 507.26 158.05 507.26 129.85V39.14H485.73V39.15ZM485.73 94.75C485.73 106.65 470.91 118.33 455.82 118.33C443.8 118.33 425.91 112.05 425.91 94.75V80.6C425.91 63.3 443.8 57.02 455.82 57.02C471.47 57.02 485.73 68.26 485.73 80.6V94.75Z" fill="#5C5C5C"/>
</svg>
