<svg width="739" height="175" viewBox="0 0 739 175" fill="none" xmlns="http://www.w3.org/2000/svg">
<path d="M294.66 34.77C284.52 34.77 274.44 37.79 266.07 43.32V38.35H244.53V172.79H266.07V133.59C274.66 139.3 284.97 142.55 294.66 142.55C318.8 142.55 344.79 128.46 344.79 97.52V79.79C344.79 48.86 318.8 34.77 294.66 34.77ZM266.06 79.79C266.06 67.01 279.15 56.21 294.65 56.21C308.42 56.21 323.24 63.59 323.24 79.79V97.51C323.24 113.71 308.42 121.09 294.65 121.09C279.95 121.09 266.06 109.63 266.06 97.51V79.79Z" fill="white"/>
<path d="M374.17 0C366.11 0 360.04 6.29 360.04 14.63C360.04 22.97 366.12 29.25 374.17 29.25C382.15 29.25 388.16 22.96 388.16 14.63C388.16 6.29 382.14 0 374.17 0Z" fill="white"/>
<path d="M384.93 38.34H363.25V139.94H384.93V38.34Z" fill="white"/>
<path d="M694.86 34.77C684.56 34.77 674.87 37.68 666.71 43.19V38.34H645.17V139.94H666.71V85.97C666.71 66.43 679.99 56.21 693.11 56.21C712.51 56.21 716.58 71.16 716.58 83.69V139.93H738.12V80.76C738.12 52.39 721.54 34.77 694.86 34.77Z" fill="white"/>
<path d="M91.73 83.76C100.29 76.94 104.8 66.77 104.8 54.27V49.39C104.8 27.86 88.28 12.82 64.62 12.82H0V139.94H21.54V93.12H61.01C71.38 92.95 73.2 95.33 74.19 96.65C74.26 96.74 81.81 106.12 87.61 136.99L88.17 139.97H110.72L109.96 135.68C109.69 134.12 103.21 97.95 91.73 83.76ZM83.26 49.88V54.76C83.26 65.35 75.14 71.68 61.55 71.68H21.54V34.27H60.52C70.89 34.26 83.26 36.97 83.26 49.88Z" fill="white"/>
<path d="M222.07 117.34V71.68C222.07 49.35 206.08 34.57 174.53 34.57C139.48 34.57 124.86 50.52 124.86 66.79V73.25H146.43V68.22C146.43 56.59 170.2 56 174.53 56C196.61 56 200.49 63.4 200.49 71.67V76.39C197.41 76.71 194.44 76.88 192.97 76.88H177.47C171.11 76.88 156.62 75.68 145.07 79.81C130.58 84.98 124.48 94.39 124.48 108.72V110.19C124.48 129.74 142.27 142.38 169.8 142.38C182.13 142.38 193.84 139.41 202.94 134C202.98 134.11 203.02 134.22 203.05 134.32L205.03 139.77H227.89L223.75 128.61C222.78 125.96 222.07 121.22 222.07 117.34ZM146.06 108.71C146.06 104.8 146.06 96.66 176.1 96.66L191.51 96.5C193.87 96.5 197.17 96.28 200.5 95.9V106.94C200.5 110.54 189.95 120.95 169.81 120.95C165.84 120.95 146.06 120.43 146.06 110.2V108.71Z" fill="white"/>
<path d="M601.5 111.16C595.86 118.38 584.97 121.1 576.18 121.1C564.88 121.1 546.84 115.2 545.47 99.46H626.72L627.02 96.14C628.48 80.13 625.83 68.08 625.27 65.78C619.83 46.94 600.56 34.77 576.17 34.77C550.17 34.77 523.84 50.24 523.84 79.8V97.52C523.84 127.08 550.16 142.55 576.17 142.55C601.04 142.55 619.87 130.37 625.37 111.17H601.5V111.16ZM576.18 56.21C589.62 56.21 605.29 61.89 605.5 77.85H545.47C546.84 62.11 564.88 56.21 576.18 56.21Z" fill="white"/>
<path d="M484.77 38.34V43.77C475.94 38.03 465.15 34.76 454.86 34.76C429.29 34.76 403.41 50.23 403.41 79.79V93.93C403.41 123.49 429.29 138.96 454.86 138.96C464.76 138.96 475.81 135.51 484.76 129.67C484.57 140.29 479.38 152.63 456.32 152.63C446.27 152.63 430.87 149.27 428.29 140.12H406.45L406.46 140.27C408.53 163.49 433.75 174.07 456.31 174.07C487.61 174.07 506.3 157.24 506.3 129.04V38.33H484.77V38.34ZM484.77 93.94C484.77 105.84 469.95 117.52 454.86 117.52C442.84 117.52 424.95 111.24 424.95 93.94V79.79C424.95 62.49 442.84 56.21 454.86 56.21C470.51 56.21 484.77 67.45 484.77 79.79V93.94Z" fill="white"/>
</svg>
