<?xml version="1.0" encoding="UTF-8"?>
<svg id="Layer_1" data-name="Layer 1" xmlns="http://www.w3.org/2000/svg" xmlns:xlink="http://www.w3.org/1999/xlink" version="1.1" viewBox="0 0 101.3 107.16">
  <defs>
    <style>
      .cls-1 {
        clip-path: url(#clippath);
      }

      .cls-2 {
        stroke-width: 0px;
      }

      .cls-2, .cls-3, .cls-4 {
        fill: none;
      }

      .cls-3 {
        stroke-width: 3px;
      }

      .cls-3, .cls-4 {
        stroke: #297fc3;
        stroke-linecap: round;
        stroke-linejoin: round;
      }

      .cls-4 {
        stroke-width: 3px;
      }
    </style>
    <clipPath id="clippath">
      <rect class="cls-2" x="11.89" y="8.51" width="77.45" height="88.55"/>
    </clipPath>
  </defs>
  <g class="cls-1">
    <g id="_그룹_56" data-name="그룹 56">
      <path id="_패스_96" data-name="패스 96" class="cls-4" d="M51.07,15.16v-3.98c0-.84-.68-1.52-1.52-1.52,0,0,0,0,0,0h-6.15c-.84,0-1.52.68-1.52,1.52h0v3.98"/>
      <path id="_패스_97" data-name="패스 97" class="cls-4" d="M52.53,22.07h9.02c11.72,0,21.22,9.5,21.23,21.22h0v16.19"/>
      <path id="_패스_98" data-name="패스 98" class="cls-4" d="M60.57,32.21h.99c6.11,0,11.07,4.96,11.07,11.07v16.19"/>
      <path id="_패스_99" data-name="패스 99" class="cls-4" d="M85.28,87.45v-26.45c0-.84-.68-1.52-1.52-1.52h-12.52c-.4,0-.79.16-1.08.45l-27.52,27.52"/>
      <path id="_사각형_19469" data-name="사각형 19469" class="cls-4" d="M26.1,87.45h57.86c2.34,0,4.23,1.89,4.23,4.23h0c0,2.34-1.89,4.23-4.23,4.23H26.1c-2.34,0-4.23-1.89-4.23-4.23h0c0-2.34,1.89-4.23,4.23-4.23Z"/>
      <path id="_패스_100" data-name="패스 100" class="cls-4" d="M52.53,26.54v-9.48c0-.94-.58-1.78-1.46-2.11-.25-.09-.52-.14-.78-.14h-7.62c-.27,0-.54.05-.79.14-.88.33-1.46,1.17-1.46,2.11v34.7c0,1.24,1.01,2.24,2.25,2.24,0,0,0,0,0,0h7.62c1.24,0,2.24-1,2.24-2.24h0v-14.43"/>
      <circle id="_타원_8" data-name="타원 8" class="cls-3" cx="54.75" cy="31.94" r="5.84"/>
      <path id="_패스_101" data-name="패스 101" class="cls-4" d="M38.33,59.97c-3.99-8.18-11.41-17.82-11.41-17.82,0,0-13.88,18.04-13.88,25.71,0,7.67,6.22,13.88,13.89,13.88,5.18,0,9.92-2.88,12.31-7.48"/>
      <path id="_패스_102" data-name="패스 102" class="cls-4" d="M26.92,76.24c-4.63,0-8.37-3.75-8.38-8.38"/>
      <path id="_패스_103" data-name="패스 103" class="cls-4" d="M50.16,69.81c-.93,3.75-6.38,5.63-12.18,4.2s-9.74-5.64-8.82-9.39,6.38-5.63,12.18-4.2,9.74,5.64,8.82,9.39Z"/>
      <path id="_패스_104" data-name="패스 104" class="cls-4" d="M33.33,64.52c1.44,5.02,6.46,6.46,12.92,5.02"/>
    </g>
  </g>
</svg>