<?xml version="1.0" encoding="UTF-8"?>
<svg id="Layer_1" data-name="Layer 1" xmlns="http://www.w3.org/2000/svg" xmlns:xlink="http://www.w3.org/1999/xlink" version="1.1" viewBox="0 0 595.28 595.28">
  <defs>
    <style>
      .cls-1 {
        clip-path: url(#clippath);
      }

      .cls-2 {
        fill: none;
      }

      .cls-2, .cls-3 {
        stroke-width: 0px;
      }

      .cls-3 {
        fill: #6d6f72;
      }
    </style>
    <clipPath id="clippath">
      <rect class="cls-2" x="80.75" y="132.02" width="426.3" height="324.87"/>
    </clipPath>
  </defs>
  <g id="_그룹_71" data-name="그룹 71">
    <g class="cls-1">
      <g id="_그룹_70" data-name="그룹 70">
        <path id="_패스_164" data-name="패스 164" class="cls-3" d="M195.32,422.43h-.17l-54.26-1.63c-3.24-.1-5.79-2.81-5.7-6.05,0-.07,0-.14,0-.2l2.13-32.25c.14-3.24,2.88-5.76,6.12-5.62,3.24.14,5.76,2.88,5.62,6.12,0,.09,0,.18-.02.27l-1.73,26.17,48.16,1.44c3.25.05,5.84,2.71,5.8,5.96-.05,3.25-2.71,5.84-5.96,5.8"/>
        <path id="_패스_165" data-name="패스 165" class="cls-3" d="M186.21,456.89h-66.96c-20.41.02-37.24-16-38.22-36.38-1.26-25.49,1.5-51.02,8.17-75.66l.28-1.04c3.94-14.48,15.96-25.33,30.76-27.77l52.55-8.59c1.31-.21,2.65.03,3.81.67l27.65,15.4,27.65-15.4c1.16-.64,2.5-.88,3.81-.67l51.99,8.51c3.2.55,5.35,3.59,4.79,6.79-.55,3.16-3.52,5.3-6.68,4.81l-49.99-8.18-28.71,16c-1.78,1-3.94,1-5.72,0l-28.71-16-50.54,8.26c-10.26,1.69-18.59,9.21-21.32,19.24l-.28,1.03c-6.34,23.45-8.96,47.75-7.75,72.02.68,14.12,12.34,25.21,26.47,25.2h66.96c3.25,0,5.88,2.63,5.88,5.88s-2.63,5.88-5.88,5.88"/>
        <path id="_패스_166" data-name="패스 166" class="cls-3" d="M173.75,319.13c-3.24,0-5.88-2.62-5.88-5.87,0-.8.16-1.59.48-2.33l4.39-10.25c1.18-3.03,4.58-4.53,7.61-3.35,3.03,1.18,4.53,4.58,3.35,7.61-.05.12-.1.24-.16.36l-4.39,10.26c-.93,2.16-3.05,3.56-5.4,3.56"/>
        <path id="_패스_167" data-name="패스 167" class="cls-3" d="M234.75,319.13c-2.35,0-4.47-1.4-5.4-3.56l-4.39-10.26c-1.38-2.94-.11-6.44,2.83-7.82s6.44-.11,7.82,2.83c.06.12.11.24.16.36l4.39,10.25c1.28,2.98-.1,6.43-3.08,7.72-.73.32-1.53.48-2.33.48"/>
        <path id="_패스_168" data-name="패스 168" class="cls-3" d="M204.25,300.43c-25.05,0-40.45-22.72-46.41-43.07-5.05-4.47-7.05-14.34-7.82-20.47,0-.12-.03-.24-.03-.36-.44-6.93,1.42-12.04,5.58-15.21-.2-10.21.75-36.67,15.42-44.03l.11-.24c2.32-4.85,5.83-7.74,17.79-9.1,14.69-1.7,35.15,1.19,45.83,9.92l.39.32c6.33,5.16,17.89,14.61,17.77,43.07,4.18,3.18,6.07,8.29,5.63,15.25-.88,7.56-2.88,16.41-7.48,20.62-5.69,21.32-20.73,43.28-46.77,43.28M165.38,248.33c1.6.74,2.78,2.15,3.23,3.85,4.41,16.83,16.39,36.48,35.65,36.48,25.3,0,33.87-27.9,35.89-36.45.41-1.71,1.56-3.15,3.14-3.93,1.94-4.02,3.13-8.37,3.51-12.82.28-4.44-.97-4.94-2.06-5.38-2.31-.92-3.79-3.2-3.7-5.69.93-25.4-7.68-32.44-13.39-37.1l-.4-.33c-6.85-5.61-23.47-8.9-37.03-7.35-6.9.79-8.22,1.91-8.27,1.96-.09.17-.17.35-.24.53-1.05,2.48-2.97,4.49-5.4,5.65-8.21,3.98-9.52,26.31-8.87,36.49.17,2.53-1.3,4.89-3.66,5.84-1.09.44-2.32.93-2.06,5.53.42,4.43,1.66,8.75,3.67,12.72M165.54,248.51h0"/>
        <path id="_패스_169" data-name="패스 169" class="cls-3" d="M245.37,210.57c-2.72,0-5.09-1.88-5.71-4.53-.34-1.63-1.39-3.01-2.87-3.78-5.65-3.22-18.83-2.2-34.4,2.66-15.27,4.77-26.74,4.44-34.09-.98-4.49-3.29-7.22-8.45-7.42-14.01-.03-3.25,2.58-5.9,5.83-5.93,3.25-.03,5.9,2.58,5.93,5.83.18,1.91,1.19,3.65,2.76,4.75,2.38,1.66,8.59,3.76,23.49-.88,13.74-4.29,32.48-8.05,43.72-1.65,4.31,2.38,7.39,6.49,8.49,11.29.75,3.16-1.21,6.32-4.36,7.07,0,0,0,0,0,0-.44.11-.9.16-1.36.16M172.64,189.93h0Z"/>
        <path id="_패스_170" data-name="패스 170" class="cls-3" d="M353.68,456.89h-167.44c-3.25,0-5.88-2.64-5.88-5.89,0-.54.07-1.08.22-1.6l30.36-106.78c.72-2.53,3.03-4.27,5.65-4.26h167.44c3.25,0,5.88,2.63,5.88,5.88,0,.54-.08,1.09-.22,1.61l-30.35,106.77c-.72,2.53-3.03,4.27-5.65,4.26M194.01,445.14h155.22l27.04-95h-155.22l-27.04,95Z"/>
        <path id="_패스_171" data-name="패스 171" class="cls-3" d="M345.87,302.31h-14.44c-3.25,0-5.88-2.63-5.88-5.88s2.63-5.88,5.88-5.88h11.66v-54.71h-11.66c-3.25,0-5.88-2.63-5.88-5.88,0-3.25,2.63-5.88,5.88-5.88h14.44c4.95,0,8.96,4.01,8.97,8.96v60.3c0,4.95-4.02,8.96-8.97,8.97"/>
        <path id="_패스_172" data-name="패스 172" class="cls-3" d="M378.15,302.19c-2.84,0-8.94-.48-12.28-4.11-2.19-2.4-2.02-6.11.37-8.31,2.27-2.08,5.76-2.05,8,.06,1.38.43,2.82.63,4.26.59h43.36c7.44.02,13.91-5.07,15.66-12.3l7.48-30.67c1.03-4.23-1.56-8.49-5.79-9.52-.61-.15-1.23-.22-1.86-.22h-34.13c-3.25,0-5.88-2.63-5.87-5.88,0-.79.16-1.58.47-2.31l3.38-7.89c3.47-8.1,5.23-16.83,5.16-25.64,0-1.72-1.4-3.12-3.13-3.13-.94-.16-1.89.23-2.44,1-1.25,1.98-2.31,4.07-3.18,6.24-5.05,11.21-14.45,32.06-45.48,42.26-3.08,1.01-6.4-.66-7.42-3.75-1.01-3.08.66-6.4,3.75-7.42h0c26.12-8.58,33.54-25.03,38.44-35.92,1.22-3.1,2.8-6.04,4.72-8.76,2.77-3.57,7.1-5.58,11.61-5.4,8.18.02,14.82,6.62,14.89,14.8.09,10.32-1.95,20.54-5.98,30.03h25.22c10.85,0,19.64,8.8,19.63,19.65,0,1.56-.19,3.12-.56,4.64l-7.49,30.68c-3.03,12.49-14.22,21.28-27.07,21.26h-43.72M374.53,290.12h0"/>
        <path id="_패스_173" data-name="패스 173" class="cls-3" d="M413.9,364.03c-3.25,0-5.88-2.63-5.88-5.88,0-2.76,1.91-5.14,4.61-5.74,56.92-12.64,92.82-69.02,80.19-125.94-12.64-56.92-69.02-92.82-125.94-80.19-48.31,10.72-82.69,53.57-82.69,103.05-.04,15.12,3.2,30.07,9.49,43.82,1.35,2.95.05,6.44-2.91,7.79s-6.44.05-7.79-2.91c-26.89-58.96-.89-128.55,58.07-155.44s128.55-.89,155.44,58.07c6.97,15.28,10.58,31.87,10.58,48.67-.24,54.92-38.34,102.41-91.89,114.56-.42.1-.84.14-1.27.14"/>
      </g>
    </g>
  </g>
</svg>