<?xml version="1.0" encoding="UTF-8"?>
<svg id="Layer_1" data-name="Layer 1" xmlns="http://www.w3.org/2000/svg" xmlns:xlink="http://www.w3.org/1999/xlink" version="1.1" viewBox="0 0 595.28 595.28">
  <defs>
    <style>
      .cls-1 {
        clip-path: url(#clippath);
      }

      .cls-2 {
        fill: none;
      }

      .cls-2, .cls-3 {
        stroke-width: 0px;
      }

      .cls-3 {
        fill: #6d6f72;
      }
    </style>
    <clipPath id="clippath">
      <rect class="cls-2" x="85.51" y="183.9" width="445.36" height="268.31"/>
    </clipPath>
  </defs>
  <g class="cls-1">
    <g id="_그룹_74" data-name="그룹 74">
      <path id="_패스_183" data-name="패스 183" class="cls-3" d="M119.53,324.99c-2.56,0-5.08-.6-7.37-1.74l-17.46-8.69c-8.19-4.07-11.52-14.01-7.45-22.2,0,0,0-.01,0-.02l49.44-99.26c4.09-8.18,14.02-11.51,22.21-7.44l17.45,8.69c8.18,4.09,11.51,14.02,7.44,22.21l-49.44,99.27c-2.81,5.62-8.55,9.17-14.83,9.17M151.53,195.44c-1.91,0-3.66,1.08-4.51,2.79l-49.44,99.26c-1.24,2.47-.25,5.48,2.22,6.72,0,0,.02,0,.02.01l17.45,8.69c2.48,1.24,5.5.23,6.74-2.26h0s49.45-99.26,49.45-99.26c1.24-2.48.23-5.5-2.26-6.74l-17.45-8.69c-.69-.35-1.46-.53-2.23-.53"/>
      <path id="_패스_184" data-name="패스 184" class="cls-3" d="M389.65,351c-3.37,0-6.7-.79-9.71-2.3l-71.39-35.55c-2.85-1.43-3.99-4.9-2.56-7.75,1.42-2.83,4.86-3.98,7.7-2.58l71.38,35.56c5.09,2.54,11.27.47,13.8-4.62,2.54-5.09.47-11.27-4.62-13.8l-77.97-38.83c-2.85-1.42-4.01-4.89-2.59-7.74,1.42-2.85,4.89-4.01,7.74-2.59l77.96,38.83c10.79,5.38,15.18,18.48,9.81,29.28-2.58,5.18-7.11,9.12-12.6,10.96-2.24.75-4.59,1.14-6.96,1.14"/>
      <path id="_패스_185" data-name="패스 185" class="cls-3" d="M202.59,230.99c-8.37.26-16.69-1.38-24.33-4.81-2.82-1.48-3.92-4.96-2.44-7.78,1.44-2.75,4.78-3.87,7.58-2.54,9.6,4.79,23.56,3.96,33.58,2.43,11.59-1.85,23.31-2.77,35.04-2.75,3.19,0,5.77,2.58,5.77,5.77s-2.58,5.77-5.77,5.77h-.86c-10.86.04-21.7.92-32.42,2.61-5.34.83-10.73,1.27-16.14,1.3"/>
      <path id="_패스_186" data-name="패스 186" class="cls-3" d="M389.32,386.71c-3.37,0-6.69-.78-9.7-2.29l-85.39-42.53c-2.82-1.48-3.92-4.96-2.44-7.78,1.44-2.75,4.78-3.87,7.58-2.54l85.4,42.53c5.09,2.53,11.27.46,13.8-4.62,2.53-5.09.46-11.27-4.62-13.8l-85.4-42.53c-2.85-1.42-4.01-4.89-2.59-7.74,1.42-2.85,4.89-4.01,7.74-2.59l85.37,42.52c10.79,5.37,15.18,18.48,9.81,29.27-3.7,7.42-11.28,12.11-19.57,12.1"/>
      <path id="_패스_187" data-name="패스 187" class="cls-3" d="M375.02,415.47c-3.37,0-6.7-.79-9.71-2.3l-59.49-28.6c-2.87-1.38-4.08-4.83-2.69-7.7,1.38-2.87,4.83-4.08,7.7-2.69l59.55,28.65c5.08,2.55,11.26.51,13.82-4.57,2.55-5.08.51-11.26-4.57-13.82l-85.4-42.54c-2.85-1.42-4.01-4.89-2.59-7.74,1.42-2.85,4.89-4.01,7.74-2.59l85.39,42.53c10.78,5.4,15.15,18.52,9.75,29.31-3.7,7.38-11.24,12.05-19.49,12.06"/>
      <path id="_패스_188" data-name="패스 188" class="cls-3" d="M335.18,431.53c-3.37,0-6.7-.79-9.71-2.3l-2.72-1.35c-2.82-1.48-3.92-4.96-2.44-7.78,1.44-2.75,4.78-3.87,7.58-2.54l2.72,1.35c5.13,2.45,11.27.27,13.72-4.86,2.39-5,.38-11-4.54-13.56l-33.92-15.88c-2.88-1.35-4.13-4.79-2.78-7.67s4.79-4.13,7.67-2.78l34.04,15.93c10.82,5.31,15.29,18.39,9.98,29.21-2.57,5.23-7.12,9.22-12.65,11.08-2.24.75-4.59,1.14-6.96,1.14"/>
      <path id="_패스_189" data-name="패스 189" class="cls-3" d="M169.95,348.81c-1.3,0-2.56-.45-3.58-1.26-5.27-3.96-9.81-8.79-13.45-14.28-6.14-10.06-19.4-17.57-19.52-17.64-2.71-1.67-3.56-5.22-1.89-7.94,1.57-2.55,4.83-3.48,7.5-2.13.65.36,16.03,9.03,23.75,21.72,2.95,4.32,6.59,8.13,10.79,11.25,2.49,1.99,2.9,5.62.91,8.11-1.1,1.37-2.76,2.17-4.51,2.17"/>
      <path id="_패스_190" data-name="패스 190" class="cls-3" d="M497.64,322.35c-5.81,0-11.2-3.03-14.2-8l-57.3-94.94c-4.72-7.83-2.21-18,5.61-22.74l16.69-10.07c7.83-4.73,18.01-2.22,22.74,5.6,0,0,0,0,0,0l57.3,94.94c4.73,7.83,2.21,18.01-5.62,22.74l-16.69,10.08c-2.57,1.56-5.53,2.39-8.54,2.39M456.98,195.75c-.91,0-1.81.25-2.59.73l-16.69,10.08c-2.37,1.44-3.14,4.53-1.7,6.9l57.3,94.93c1.44,2.38,4.53,3.14,6.9,1.7l16.69-10.08c2.38-1.44,3.14-4.53,1.7-6.9l-57.3-94.93c-.69-1.14-1.8-1.96-3.1-2.28-.4-.1-.8-.15-1.21-.15"/>
      <path id="_패스_191" data-name="패스 191" class="cls-3" d="M318.87,281.72c-3.19,0-5.77-2.57-5.78-5.76,0-2.03,1.06-3.91,2.79-4.95l14.87-8.99c2.7-1.69,6.26-.86,7.95,1.84s.86,6.26-1.84,7.95c-.05.03-.09.06-.14.09l-14.88,8.99c-.9.55-1.93.83-2.98.83"/>
      <path id="_패스_192" data-name="패스 192" class="cls-3" d="M267.62,278.62c-11.16.01-21.52-5.8-27.32-15.33-4.8-7.96-2.23-18.31,5.73-23.11.52-.32,1.07-.6,1.62-.86l58.2-26.86c4.78-2.23,10.15-2.88,15.32-1.87l59.36,11.64c.35.07,30.11,6,45.91-3.54,2.7-1.69,6.26-.86,7.95,1.84,1.69,2.7.86,6.26-1.84,7.95-.05.03-.09.06-.14.09-19.7,11.89-52.75,5.26-54.14,4.97l-59.31-11.6c-2.79-.55-5.68-.21-8.26.99l-58.2,26.86c-2.65,1.23-3.81,4.37-2.58,7.02.08.17.17.34.27.51,5.22,8.58,15.92,12.05,25.19,8.19l29.02-12.27c1.26-.53,2.67-.6,3.98-.19l26.97,8.49c3.04.96,4.73,4.2,3.77,7.23-.96,3.04-4.2,4.73-7.23,3.77h0l-24.95-7.85-27.07,11.45c-3.88,1.64-8.04,2.48-12.25,2.48"/>
      <path id="_패스_193" data-name="패스 193" class="cls-3" d="M432.93,362.93c-3.19,0-5.77-2.57-5.78-5.76,0-2.03,1.06-3.91,2.79-4.95l5.87-3.54c4.35-3.02,16.07-12.31,20.23-20.59,6.67-13.28,21.29-23.16,21.91-23.58,2.65-1.77,6.23-1.06,8,1.58,1.77,2.65,1.06,6.23-1.58,8-.12.08-12.73,8.66-18.02,19.17-6.41,12.75-23.43,24.53-24.15,25.02-.09.07-.19.12-.3.18l-6.02,3.64c-.9.55-1.93.83-2.98.83"/>
      <path id="_패스_194" data-name="패스 194" class="cls-3" d="M210.53,377.73c-12.05.01-21.84-9.75-21.85-21.8,0-6.54,2.92-12.74,7.97-16.89l15.82-12.99c9.42-7.53,23.16-5.99,30.69,3.43,7.38,9.24,6.06,22.68-2.97,30.31l-15.82,12.99c-3.9,3.2-8.79,4.95-13.84,4.95M226.32,332.63c-2.38,0-4.68.82-6.52,2.33l-15.82,12.99c-4.34,3.67-4.89,10.16-1.22,14.5,3.6,4.26,9.93,4.88,14.28,1.4l15.82-12.99c4.39-3.6,5.03-10.08,1.43-14.47-1.96-2.39-4.88-3.77-7.97-3.76"/>
      <path id="_패스_195" data-name="패스 195" class="cls-3" d="M225.69,406.84c-12.05.02-21.83-9.74-21.85-21.79,0-6.54,2.92-12.75,7.98-16.9l26.26-21.56c9.45-7.49,23.18-5.9,30.67,3.55,7.31,9.23,5.99,22.59-2.98,30.2l-26.26,21.56c-3.9,3.2-8.79,4.95-13.84,4.95M251.92,353.19c-2.38,0-4.68.82-6.52,2.33l-26.26,21.56c-4.36,3.65-4.93,10.14-1.28,14.5,3.6,4.3,9.98,4.92,14.34,1.41l26.26-21.57c4.39-3.6,5.03-10.08,1.43-14.47-1.96-2.39-4.88-3.77-7.97-3.76"/>
      <path id="_패스_196" data-name="패스 196" class="cls-3" d="M249.55,428.85c-.73,0-1.44-.04-2.17-.11-12-1.18-20.77-11.87-19.59-23.87.57-5.76,3.4-11.05,7.86-14.73l19.36-15.9c9.39-7.56,23.13-6.09,30.7,3.3,7.46,9.27,6.14,22.8-2.99,30.44l-19.36,15.9c-3.89,3.21-8.77,4.97-13.82,4.97M268.86,380.83c-2.38,0-4.68.82-6.52,2.33l-19.36,15.9c-4.33,3.69-4.84,10.18-1.16,14.51,3.59,4.21,9.87,4.83,14.22,1.4l19.36-15.9c4.39-3.6,5.03-10.08,1.43-14.47-1.96-2.39-4.88-3.77-7.97-3.76"/>
      <path id="_패스_197" data-name="패스 197" class="cls-3" d="M271.68,452.2c-12.05.01-21.84-9.75-21.85-21.8,0-6.54,2.92-12.74,7.97-16.89l15.82-12.99c9.46-7.48,23.19-5.87,30.66,3.59,7.28,9.21,5.97,22.53-2.97,30.15l-15.82,12.99c-3.9,3.2-8.79,4.95-13.84,4.95M287.47,407.1c-2.38,0-4.69.82-6.53,2.33l-15.82,12.99c-4.44,3.55-5.17,10.02-1.62,14.46s10.02,5.17,14.46,1.62c.07-.06.15-.12.22-.18l15.82-12.99c4.39-3.6,5.03-10.08,1.43-14.47-1.96-2.38-4.88-3.76-7.96-3.76"/>
    </g>
  </g>
</svg>