<?xml version="1.0" encoding="UTF-8"?>
<svg id="Layer_1" data-name="Layer 1" xmlns="http://www.w3.org/2000/svg" xmlns:xlink="http://www.w3.org/1999/xlink" version="1.1" viewBox="0 0 595.28 595.28">
  <defs>
    <style>
      .cls-1 {
        clip-path: url(#clippath);
      }

      .cls-2 {
        fill: none;
      }

      .cls-2, .cls-3 {
        stroke-width: 0px;
      }

      .cls-3 {
        fill: #6d6f72;
      }
    </style>
    <clipPath id="clippath">
      <rect class="cls-2" x="143.68" y="98.1" width="322.8" height="381.09"/>
    </clipPath>
  </defs>
  <g id="_그룹_65" data-name="그룹 65">
    <g class="cls-1">
      <g id="_그룹_64" data-name="그룹 64">
        <path id="_패스_132" data-name="패스 132" class="cls-3" d="M216.44,302.66c-3.63,0-6.57-2.94-6.57-6.57h0v-67.69c0-3.63,2.94-6.57,6.57-6.57s6.57,2.94,6.57,6.57v67.69c0,3.63-2.94,6.57-6.57,6.57"/>
        <path id="_패스_133" data-name="패스 133" class="cls-3" d="M232.94,431.62c-12.73-.01-23.05-10.33-23.07-23.07v-57.81c0-3.63,2.94-6.57,6.57-6.57s6.57,2.94,6.57,6.57v57.81c0,5.48,4.44,9.92,9.92,9.92s9.92-4.44,9.92-9.92v-40.69c0-3.63,2.94-6.58,6.58-6.58s6.58,2.94,6.58,6.58h0v40.69c-.01,12.73-10.33,23.05-23.07,23.07"/>
        <path id="_패스_134" data-name="패스 134" class="cls-3" d="M265.92,431.62c-12.73-.01-23.05-10.33-23.07-23.07v-40.69c0-3.63,2.94-6.57,6.57-6.57s6.57,2.94,6.57,6.57v40.69c.09,5.48,4.61,9.85,10.09,9.75,5.35-.09,9.66-4.4,9.75-9.75v-169.45c.02-13.63,11.06-24.67,24.69-24.69h60.96c5.48,0,9.92-4.44,9.92-9.92s-4.44-9.92-9.92-9.92h-142.98c-15.72.02-28.46,12.76-28.48,28.49v55.29c0,6.15,4.99,11.13,11.14,11.14h8.7v-60.65c0-3.63,2.95-6.57,6.58-6.57,3.63,0,6.57,2.94,6.57,6.57v67.23c0,3.63-2.95,6.58-6.58,6.58h-15.27c-13.41-.02-24.28-10.89-24.29-24.3v-55.3c.03-22.98,18.65-41.6,41.63-41.63h142.98c12.74-.14,23.18,10.07,23.32,22.81.14,12.74-10.07,23.18-22.81,23.32-.17,0-.35,0-.52,0h-60.96c-6.37,0-11.54,5.17-11.55,11.55v169.45c-.01,12.73-10.33,23.05-23.07,23.07"/>
        <path id="_패스_135" data-name="패스 135" class="cls-3" d="M249.42,194.57c-18.55,0-33.58-15.03-33.59-33.58,0-18.55,15.03-33.58,33.58-33.59,18.55,0,33.58,15.03,33.59,33.58h0c-.02,18.55-15.04,33.57-33.58,33.59M249.42,140.55c-11.29,0-20.43,9.15-20.43,20.43s9.15,20.43,20.43,20.43,20.43-9.15,20.43-20.43h0c-.01-11.28-9.15-20.42-20.43-20.43"/>
        <path id="_패스_136" data-name="패스 136" class="cls-3" d="M234.37,357.32h-75.66c-8.31,0-15.04-6.74-15.04-15.05v-36c0-8.31,6.73-15.04,15.04-15.05h75.66c8.31,0,15.04,6.74,15.04,15.05v36c0,8.31-6.73,15.04-15.04,15.05M158.72,304.37c-1.05,0-1.9.85-1.9,1.9v36c0,1.05.85,1.9,1.9,1.9h75.66c1.05,0,1.9-.85,1.9-1.9v-36c0-1.05-.85-1.9-1.9-1.9h-75.66Z"/>
        <path id="_패스_137" data-name="패스 137" class="cls-3" d="M157.98,479.19c-3.63,0-6.57-2.94-6.57-6.57,0-1.33.4-2.62,1.15-3.72l26.71-39.07c1-1.46,2.54-2.45,4.29-2.76l13.73-2.42c3.56-.71,7.03,1.59,7.74,5.15.71,3.56-1.59,7.03-5.15,7.74-.1.02-.2.04-.3.05l-11.01,1.95-25.16,36.78c-1.22,1.8-3.26,2.87-5.43,2.87"/>
        <path id="_패스_138" data-name="패스 138" class="cls-3" d="M459.9,479.19c-1.66,0-3.27-.63-4.48-1.76l-36.76-34.2c-.96-.89-1.63-2.05-1.92-3.32l-9.18-39.38-48.59-23.67-47.64,38.48c-2.85,2.25-6.99,1.75-9.23-1.1-2.21-2.8-1.77-6.86.97-9.13l50.89-41.09c1.98-1.6,4.71-1.91,7.01-.8l55.15,26.87c1.78.86,3.07,2.48,3.52,4.41l9.44,40.48,35.3,32.83c2.66,2.48,2.8,6.64.33,9.29-1.24,1.33-2.98,2.09-4.81,2.09"/>
        <path id="_패스_139" data-name="패스 139" class="cls-3" d="M358.08,375.69c-3.63,0-6.57-2.94-6.57-6.57h0v-122.33c0-3.63,2.94-6.57,6.57-6.57s6.57,2.94,6.57,6.57h0v122.33c0,3.63-2.94,6.57-6.57,6.57h0"/>
        <path id="_패스_140" data-name="패스 140" class="cls-3" d="M358.08,194.57c-3.63,0-6.57-2.93-6.57-6.56h0v-83.33c0-3.63,2.94-6.57,6.57-6.57s6.57,2.94,6.57,6.57v83.33c0,3.63-2.94,6.56-6.56,6.56h0"/>
        <path id="_패스_141" data-name="패스 141" class="cls-3" d="M446.38,178.97c-21.37.19-42.71-1.76-63.69-5.84-3.59-.57-6.03-3.94-5.46-7.53.57-3.59,3.94-6.03,7.53-5.46.19.03.38.07.57.12,16.54,3.26,33.32,5.07,50.17,5.43l-7.17-13.88c-.99-1.92-.98-4.2.03-6.11l7.18-13.56c-53.34-1.46-79.11-13.2-80.25-13.73-3.28-1.57-4.66-5.49-3.1-8.77,1.55-3.23,5.4-4.63,8.66-3.15.26.12,28.12,12.64,85.51,12.64,3.63,0,6.58,2.94,6.58,6.57,0,1.07-.26,2.12-.76,3.07l-10.6,20.03,10.62,20.57c1.67,3.22.4,7.19-2.82,8.85-.93.48-1.97.73-3.02.73"/>
      </g>
    </g>
  </g>
</svg>