<?xml version="1.0" encoding="UTF-8"?>
<svg id="Layer_1" data-name="Layer 1" xmlns="http://www.w3.org/2000/svg" xmlns:xlink="http://www.w3.org/1999/xlink" version="1.1" viewBox="0 0 595.28 595.28">
  <defs>
    <style>
      .cls-1 {
        clip-path: url(#clippath);
      }

      .cls-2 {
        fill: none;
      }

      .cls-2, .cls-3 {
        stroke-width: 0px;
      }

      .cls-3 {
        fill: #6d6f72;
      }
    </style>
    <clipPath id="clippath">
      <rect class="cls-2" x="121.3" y="125.04" width="379.77" height="301.23"/>
    </clipPath>
  </defs>
  <g id="_그룹_69" data-name="그룹 69">
    <g class="cls-1">
      <g id="_그룹_68" data-name="그룹 68">
        <path id="_패스_156" data-name="패스 156" class="cls-3" d="M430.09,426.27c-39.2,0-70.98-31.78-70.98-70.99,0-39.2,31.78-70.98,70.99-70.98,39.2,0,70.98,31.78,70.98,70.98-.05,39.19-31.8,70.94-70.99,70.99M430.09,295.73c-32.89,0-59.55,26.67-59.55,59.56,0,32.89,26.67,59.55,59.56,59.55,32.89,0,59.55-26.66,59.55-59.55-.04-32.88-26.68-59.52-59.56-59.55"/>
        <path id="_패스_157" data-name="패스 157" class="cls-3" d="M424.52,381.24c-1.52,0-2.97-.6-4.04-1.68l-20.06-20.05c-2.23-2.23-2.23-5.85,0-8.08s5.85-2.23,8.08,0h0l16.02,16.02,32.43-32.43c2.23-2.23,5.85-2.23,8.08,0,2.23,2.23,2.23,5.85,0,8.08l-36.46,36.46c-1.07,1.07-2.53,1.68-4.04,1.68"/>
        <path id="_패스_158" data-name="패스 158" class="cls-3" d="M276.26,423.72c-1.66,0-3.23-.72-4.32-1.97l-22.42-25.87c-1.43-1.65-1.79-3.96-.94-5.97l22.42-52.68c1.23-2.9,4.58-4.26,7.49-3.03,1.36.58,2.45,1.66,3.03,3.03l22.42,52.68c.85,2.01.49,4.32-.94,5.97l-22.42,25.86c-1.08,1.25-2.66,1.97-4.32,1.97M260.5,391.1l15.76,18.19,15.76-18.19-15.76-37.03-15.76,37.03Z"/>
        <path id="_패스_159" data-name="패스 159" class="cls-3" d="M127.01,426.26c-3.16,0-5.72-2.58-5.71-5.75,0-.26.02-.53.06-.79l8.09-56.16c3.22-22.79,20.91-40.81,43.63-44.46l62.16-10.16c1.27-.21,2.58.02,3.7.65l37.31,20.8,37.32-20.8c1.13-.63,2.43-.86,3.7-.65l32.91,5.37c3.12.51,5.23,3.45,4.72,6.56-.51,3.12-3.45,5.23-6.56,4.72h0l-30.95-5.05-38.36,21.37c-1.73.97-3.83.97-5.56,0l-38.36-21.37-60.19,9.84c-17.79,2.86-31.64,16.98-34.16,34.82l-8.1,56.16c-.4,2.81-2.82,4.9-5.66,4.9"/>
        <path id="_패스_160" data-name="패스 160" class="cls-3" d="M236.15,320.3c-.77,0-1.54-.16-2.24-.47-2.9-1.24-4.25-4.6-3.01-7.5l5.77-13.48c1.24-2.9,4.6-4.25,7.51-3.01,2.9,1.24,4.25,4.6,3.01,7.51l-5.77,13.48c-.9,2.11-2.98,3.47-5.27,3.46"/>
        <path id="_패스_161" data-name="패스 161" class="cls-3" d="M316.35,320.3c-2.29,0-4.36-1.36-5.26-3.47l-5.77-13.48c-1.24-2.9.11-6.26,3.01-7.5,2.9-1.24,6.26.11,7.5,3.01l5.77,13.48c1.24,2.9-.11,6.26-3.01,7.5-.71.31-1.47.47-2.24.47"/>
        <path id="_패스_162" data-name="패스 162" class="cls-3" d="M276.26,295.73c-32.06,0-51.74-29.53-59.25-55.76-3.63-2.94-8.01-9.85-10.04-25.99-.02-.12-.03-.23-.03-.35-.56-8.79,1.91-15.1,7.36-18.84-.35-12.26.34-47.97,19.37-57.22.12-.05.24-.12.35-.2.18-.3.34-.61.48-.93,2.74-5.71,7.01-9.14,21.81-10.83,18.43-2.1,45.28,1.6,58.73,12.62l.52.43c8.71,7.1,23.09,18.86,22.61,56.1,5.48,3.73,7.97,10.06,7.41,18.88-.94,8.1-3.38,20.92-9.61,26.12-7.16,27.49-26.37,55.99-59.71,55.99M223.95,230.96c1.73.66,3.03,2.11,3.5,3.89,5.97,22.82,22.34,49.46,48.81,49.46,34.72,0,46.4-37.86,49.15-49.47.43-1.8,1.69-3.28,3.41-3.97,1.88-1.65,4.43-10.26,5.38-18.27.42-6.81-1.63-8.24-3.96-9.18-2.24-.9-3.67-3.1-3.58-5.51,1.26-34.4-10.53-44.03-18.34-50.41l-.53-.43c-10.63-8.72-33.87-11.99-50.2-10.12-11.3,1.3-12.16,3.09-12.79,4.4-1.17,2.85-3.37,5.17-6.15,6.49-12.65,6.14-13.5,38.9-12.79,49.9.15,2.46-1.29,4.75-3.58,5.66-2.32.93-4.36,2.34-3.95,9.31,1.04,7.93,3.72,16.65,5.63,18.23M223.72,230.86h0M329.05,230.76h0"/>
        <path id="_패스_163" data-name="패스 163" class="cls-3" d="M330.31,177.62c-2.65,0-4.95-1.82-5.56-4.4-.57-2.68-2.3-4.97-4.73-6.26-8.02-4.58-25.53-3.34-46.82,3.3-19.43,6.07-33.91,5.74-43.02-.97-5.36-3.97-8.64-10.14-8.93-16.81,0-3.15,2.56-5.71,5.71-5.71h0c3.13,0,5.67,2.52,5.71,5.64.25,3.12,1.87,5.96,4.41,7.77,5.91,4.2,17.52,3.89,32.71-.83,14.48-4.51,40.98-10.83,55.88-2.34,5.17,2.86,8.88,7.79,10.19,13.55.72,3.07-1.18,6.15-4.24,6.88-.43.1-.88.15-1.32.16M232.69,152.49h0Z"/>
      </g>
    </g>
  </g>
</svg>