<?xml version="1.0" encoding="UTF-8"?>
<svg id="Layer_1" data-name="Layer 1" xmlns="http://www.w3.org/2000/svg" xmlns:xlink="http://www.w3.org/1999/xlink" version="1.1" viewBox="0 0 595.28 595.28">
  <defs>
    <style>
      .cls-1 {
        clip-path: url(#clippath);
      }

      .cls-2 {
        fill: none;
      }

      .cls-2, .cls-3 {
        stroke-width: 0px;
      }

      .cls-3 {
        fill: #6d6f72;
      }
    </style>
    <clipPath id="clippath">
      <rect class="cls-2" x="133.37" y="143.25" width="325.71" height="292.76"/>
    </clipPath>
  </defs>
  <g class="cls-1">
    <g id="_그룹_76" data-name="그룹 76">
      <path id="_패스_198" data-name="패스 198" class="cls-3" d="M412.31,406.05c-2.95,0-5.35-2.39-5.35-5.34,0-.79.17-1.57.51-2.29l35.8-76.02c5.22-11.13,6.48-23.71,3.57-35.66l-15.22-62.12c-.91-3.68-4.53-6.01-8.25-5.32-3.28.61-5.6,3.57-5.42,6.9l4.06,73.83c.17,2.95-2.09,5.48-5.05,5.65-2.95.17-5.48-2.09-5.65-5.05l-4.06-73.84c-.45-8.7,5.59-16.39,14.14-18.01,9.32-1.75,18.37,4.09,20.62,13.3l15.22,62.11c3.49,14.32,1.98,29.41-4.29,42.76l-35.8,76.02c-.88,1.88-2.77,3.07-4.85,3.07"/>
      <path id="_패스_199" data-name="패스 199" class="cls-3" d="M353.38,385.05c-2.78,0-5.09-2.13-5.33-4.9-.61-7.03,1-14.07,4.6-20.13l37.05-62.8c5.17-8.62,16.36-11.42,24.98-6.25,8.19,4.91,11.2,15.33,6.88,23.85l-22.46,43.53c-1.41,2.6-4.66,3.56-7.26,2.15-2.52-1.37-3.52-4.48-2.25-7.06l22.47-43.53c1.91-3.68.48-8.2-3.2-10.11-3.54-1.84-7.91-.58-9.93,2.86l-37.06,62.8c-2.46,4.16-3.56,8.97-3.14,13.78.25,2.95-1.94,5.54-4.89,5.79-.16,0-.3.01-.45.01"/>
      <path id="_패스_200" data-name="패스 200" class="cls-3" d="M416.72,436.02h-66.37c-6.47,0-11.72-5.25-11.73-11.72v-17.24c.01-6.47,5.26-11.71,11.73-11.72h66.37c6.47.01,11.71,5.25,11.72,11.72v17.24c-.01,6.47-5.25,11.71-11.72,11.72M350.34,406.05c-.56,0-1.01.45-1.02,1.01,0,0,0,0,0,0v17.24c0,.56.45,1.01,1.01,1.01,0,0,0,0,0,0h66.37c.56,0,1.01-.44,1.01-1,0,0,0,0,0-.01v-17.24c0-.56-.44-1.01-1-1.01,0,0,0,0-.01,0h-66.37Z"/>
      <path id="_패스_201" data-name="패스 201" class="cls-3" d="M180.14,406.04c-2.07,0-3.96-1.2-4.85-3.07l-35.8-76.02c-6.27-13.35-7.78-28.44-4.29-42.76l15.22-62.11c2.26-9.19,11.31-15.03,20.62-13.3,8.55,1.63,14.59,9.32,14.14,18.02l-4.06,73.84c-.18,2.95-2.72,5.2-5.67,5.01-2.93-.18-5.16-2.68-5.02-5.61l4.06-73.83c.18-3.33-2.14-6.29-5.42-6.91-3.73-.68-7.34,1.65-8.25,5.33l-15.22,62.11c-2.91,11.95-1.65,24.53,3.57,35.66l35.8,76.02c1.26,2.67.11,5.86-2.56,7.12-.71.34-1.49.51-2.28.51"/>
      <path id="_패스_202" data-name="패스 202" class="cls-3" d="M239.07,385.05c-.15,0-.3,0-.46-.01-2.95-.26-5.13-2.85-4.88-5.79.42-4.81-.69-9.63-3.15-13.78l-37.05-62.8c-2.08-3.58-6.67-4.8-10.25-2.71-3.47,2.02-4.74,6.41-2.87,9.97l22.47,43.53c1.41,2.6.45,5.85-2.15,7.26-2.6,1.41-5.85.45-7.26-2.15-.04-.07-.07-.13-.1-.2l-22.47-43.53c-4.55-8.97-.96-19.93,8.01-24.48,8.52-4.32,18.93-1.32,23.85,6.88l37.07,62.8c3.59,6.07,5.2,13.11,4.59,20.13-.24,2.77-2.55,4.89-5.33,4.9"/>
      <path id="_패스_203" data-name="패스 203" class="cls-3" d="M242.1,436.02h-66.37c-6.47,0-11.71-5.25-11.72-11.72v-17.24c0-6.47,5.25-11.71,11.72-11.72h66.37c6.47,0,11.72,5.25,11.73,11.72v17.24c-.01,6.47-5.26,11.71-11.73,11.72M175.73,406.05c-.56,0-1.01.45-1.02,1.01v17.24c0,.56.46,1.01,1.02,1.01h66.37c.56,0,1.01-.45,1.02-1.01,0,0,0,0,0,0v-17.24c0-.56-.45-1.01-1.01-1.01,0,0,0,0,0,0h-66.37Z"/>
      <path id="_패스_204" data-name="패스 204" class="cls-3" d="M296.22,298.97c-1.61,0-3.14-.73-4.16-1.99l-91.25-112.79c-1.59-1.96-1.59-4.77,0-6.73l26.07-32.22c1.01-1.26,2.54-1.99,4.16-1.99h130.37c1.61,0,3.14.73,4.16,1.99l26.07,32.22c1.59,1.96,1.59,4.77,0,6.73l-91.25,112.8c-1.01,1.26-2.54,1.99-4.16,1.99M211.87,180.82l84.35,104.28,84.38-104.28-21.73-26.87h-125.28l-21.72,26.87Z"/>
      <path id="_패스_205" data-name="패스 205" class="cls-3" d="M296.22,298.97c-2.34,0-4.41-1.52-5.11-3.76l-35.27-112.8c-.33-1.04-.33-2.15,0-3.19l10.07-32.22c.7-2.23,2.77-3.75,5.11-3.75h50.41c2.34,0,4.41,1.52,5.11,3.75l10.07,32.22c.33,1.04.33,2.15,0,3.19l-35.27,112.8c-.7,2.24-2.77,3.76-5.11,3.76M266.56,180.82l29.66,94.86,29.67-94.87-8.4-26.87h-42.54l-8.4,26.88Z"/>
      <path id="_패스_206" data-name="패스 206" class="cls-3" d="M232.1,186.17h-27.13c-2.96,0-5.36-2.4-5.36-5.36s2.4-5.36,5.36-5.36h27.13c2.96,0,5.36,2.4,5.36,5.36s-2.4,5.36-5.36,5.36"/>
      <path id="_패스_207" data-name="패스 207" class="cls-3" d="M300.61,186.17h-35.54c-2.96,0-5.36-2.4-5.36-5.36s2.4-5.36,5.36-5.36h35.54c2.96,0,5.36,2.4,5.36,5.36s-2.4,5.36-5.36,5.36h0"/>
      <path id="_패스_208" data-name="패스 208" class="cls-3" d="M353.4,186.17h-21.89c-2.96,0-5.36-2.4-5.36-5.36s2.4-5.36,5.36-5.36h21.89c2.96,0,5.36,2.4,5.36,5.36s-2.4,5.36-5.36,5.36h0"/>
    </g>
  </g>
</svg>