<?xml version="1.0" encoding="UTF-8"?>
<svg id="Layer_1" data-name="Layer 1" xmlns="http://www.w3.org/2000/svg" xmlns:xlink="http://www.w3.org/1999/xlink" version="1.1" viewBox="0 0 595.28 595.28">
  <defs>
    <style>
      .cls-1 {
        clip-path: url(#clippath);
      }

      .cls-2 {
        fill: none;
      }

      .cls-2, .cls-3 {
        stroke-width: 0px;
      }

      .cls-3 {
        fill: #6d6f72;
      }
    </style>
    <clipPath id="clippath">
      <rect class="cls-2" x="107.87" y="132.79" width="402.07" height="324.45"/>
    </clipPath>
  </defs>
  <g class="cls-1">
    <g id="_그룹_72" data-name="그룹 72">
      <path id="_패스_174" data-name="패스 174" class="cls-3" d="M374.7,457.24h-131.59c-12.59,0-22.8-10.2-22.81-22.79,0-1.26.1-2.51.31-3.75l1.63-9.8c5.52-33.76,34.73-58.51,68.93-58.42h35.45c34.21-.09,63.42,24.66,68.94,58.42l1.63,9.8c2.06,12.42-6.34,24.16-18.76,26.23-1.23.2-2.48.31-3.73.31M291.19,376.09c-27.54-.07-51.07,19.86-55.51,47.04l-1.63,9.8c-.83,5.02,2.57,9.76,7.59,10.59.49.08.99.12,1.48.12h131.58c5.09-.01,9.2-4.15,9.19-9.23,0-.49-.04-.99-.12-1.48l-1.63-9.8c-4.44-27.18-27.97-47.12-55.51-47.04h-35.44Z"/>
      <path id="_패스_175" data-name="패스 175" class="cls-3" d="M308.9,376.08c-24.09,0-43.63-19.53-43.63-43.62,0-24.09,19.53-43.63,43.62-43.63,24.09,0,43.63,19.53,43.63,43.62h0c-.03,24.09-19.55,43.6-43.62,43.63M308.9,302.44c-16.58,0-30.01,13.44-30.01,30.02,0,16.58,13.44,30.01,30.02,30.01,16.57,0,30.01-13.44,30.01-30.01-.02-16.57-13.45-30-30.02-30.02"/>
      <path id="_패스_176" data-name="패스 176" class="cls-3" d="M200.83,437.43h-70.16c-12.6,0-22.81-10.22-22.81-22.81,0-1.25.1-2.51.31-3.74l1.63-9.8c5.52-33.76,34.74-58.51,68.94-58.41h35.45c10.34-.02,20.55,2.27,29.88,6.7,3.4,1.61,4.85,5.67,3.24,9.07-1.61,3.4-5.67,4.85-9.07,3.24-7.52-3.57-15.74-5.42-24.06-5.39h-35.44c-27.55-.08-51.08,19.85-55.53,47.04l-1.63,9.8c-.84,5,2.54,9.74,7.55,10.57.5.08,1.01.13,1.52.13h70.17c3.76,0,6.81,3.05,6.81,6.81s-3.05,6.81-6.81,6.81h0"/>
      <path id="_패스_177" data-name="패스 177" class="cls-3" d="M196.47,356.26c-24.09,0-43.62-19.54-43.62-43.63,0-24.09,19.54-43.62,43.63-43.62,24.09,0,43.62,19.54,43.62,43.63,0,0,0,.01,0,.02-.04,24.07-19.56,43.57-43.63,43.6M196.47,282.61c-16.58,0-30.01,13.44-30.01,30.02,0,16.58,13.44,30.01,30.02,30.01,16.56,0,29.99-13.42,30.01-29.99-.02-16.57-13.45-30-30.02-30.02"/>
      <path id="_패스_178" data-name="패스 178" class="cls-3" d="M487.13,437.43h-70.28c-3.76,0-6.81-3.05-6.81-6.81s3.05-6.81,6.81-6.81h70.28c5.09,0,9.2-4.14,9.2-9.23,0-.5-.04-.99-.12-1.48l-1.63-9.8c-4.44-27.18-27.96-47.12-55.51-47.04h-35.46c-8.32-.02-16.54,1.82-24.05,5.39-3.4,1.61-7.46.16-9.07-3.23-1.61-3.4-.16-7.46,3.23-9.07,9.33-4.44,19.54-6.73,29.88-6.71h35.47c34.2-.09,63.41,24.66,68.93,58.41l1.63,9.8c2.07,12.43-6.33,24.18-18.75,26.25-1.24.21-2.49.31-3.75.31"/>
      <path id="_패스_179" data-name="패스 179" class="cls-3" d="M421.33,356.26c-24.09,0-43.63-19.53-43.63-43.62,0-24.09,19.53-43.63,43.62-43.63,24.09,0,43.63,19.53,43.63,43.62v.03c-.04,24.07-19.55,43.57-43.62,43.6M421.33,282.61c-16.58,0-30.02,13.44-30.02,30.01,0,16.58,13.44,30.02,30.01,30.02,16.57,0,30-13.42,30.02-29.99-.02-16.57-13.45-30-30.02-30.02"/>
      <path id="_패스_180" data-name="패스 180" class="cls-3" d="M278.54,246.82c-5.69-.01-10.3-4.64-10.28-10.33,0-.57.05-1.15.15-1.71l4.88-28.47-20.68-20.16c-4.07-3.98-4.14-10.51-.16-14.58,1.58-1.61,3.64-2.67,5.88-2.99l28.56-4.14,12.78-25.9c2.51-5.1,8.69-7.2,13.79-4.68,2.03,1,3.68,2.65,4.68,4.68l12.78,25.9,28.55,4.14c5.63.82,9.53,6.05,8.71,11.68-.33,2.24-1.38,4.31-3,5.89l-20.65,20.15,4.88,28.47c.96,5.6-2.8,10.93-8.4,11.89-2.23.38-4.53.02-6.54-1.04l-25.56-13.44-25.56,13.44c-1.48.78-3.13,1.19-4.81,1.19M308.91,218.15c1.67,0,3.31.4,4.79,1.17l21.16,11.13-4.04-23.56c-.58-3.34.53-6.75,2.95-9.11l17.13-16.7-23.66-3.45c-3.36-.48-6.26-2.59-7.76-5.63l-10.58-21.44-10.58,21.44c-1.5,3.04-4.4,5.15-7.76,5.63l-23.64,3.45,17.12,16.69c2.43,2.37,3.54,5.78,2.96,9.12l-4.04,23.56,21.16-11.13c1.48-.77,3.12-1.17,4.79-1.17M331.71,166h0ZM305.94,144.56h0Z"/>
      <path id="_패스_181" data-name="패스 181" class="cls-3" d="M174.77,254.59c-5.7-.02-10.3-4.66-10.28-10.36,0-.57.05-1.13.15-1.69l3.22-18.83-13.68-13.33c-4.07-3.97-4.15-10.49-.18-14.57,1.58-1.62,3.65-2.68,5.89-3l18.9-2.76,8.46-17.13c2.52-5.1,8.7-7.19,13.8-4.67,2.03,1,3.67,2.64,4.67,4.67l8.45,17.13,18.91,2.76c5.63.82,9.53,6.05,8.71,11.67-.33,2.24-1.38,4.31-3.01,5.9l-13.68,13.33,3.23,18.83c.95,5.61-2.82,10.93-8.43,11.89-2.23.38-4.51.02-6.51-1.03l-16.91-8.88-16.91,8.88c-1.48.78-3.13,1.19-4.8,1.19M196.47,230.47c1.67,0,3.31.41,4.79,1.18l12.51,6.58-2.39-13.93c-.57-3.34.53-6.75,2.95-9.12l10.13-9.87-13.99-2.03c-3.35-.49-6.25-2.6-7.76-5.64l-6.25-12.68-6.26,12.68c-1.5,3.04-4.4,5.15-7.76,5.64l-13.99,2.03,10.13,9.87c2.43,2.37,3.53,5.78,2.96,9.12l-2.39,13.93,12.51-6.58c1.48-.77,3.12-1.18,4.79-1.18M214.94,191.63h0ZM193.51,178.96h0Z"/>
      <path id="_패스_182" data-name="패스 182" class="cls-3" d="M399.62,254.59c-5.7-.02-10.3-4.66-10.28-10.36,0-.57.05-1.13.15-1.69l3.22-18.83-13.68-13.33c-4.07-3.98-4.15-10.5-.17-14.57,1.58-1.62,3.65-2.67,5.88-3l18.9-2.76,8.46-17.13c2.52-5.1,8.7-7.19,13.8-4.67,2.03,1,3.67,2.64,4.67,4.67l8.45,17.13,18.91,2.76c5.63.82,9.53,6.05,8.71,11.67-.33,2.24-1.38,4.31-3.01,5.9l-13.68,13.33,3.23,18.83c.95,5.61-2.82,10.93-8.43,11.89-2.23.38-4.51.02-6.51-1.03l-16.91-8.88-16.91,8.88c-1.48.78-3.13,1.19-4.8,1.19M421.33,230.47c1.67,0,3.31.41,4.79,1.18l12.51,6.59-2.39-13.93c-.57-3.34.53-6.75,2.96-9.12l10.13-9.87-13.99-2.03c-3.36-.49-6.26-2.6-7.77-5.64l-6.25-12.68-6.26,12.68c-1.5,3.04-4.4,5.15-7.75,5.64l-13.99,2.03,10.13,9.87c2.43,2.37,3.53,5.78,2.96,9.12l-2.39,13.93,12.49-6.58c1.48-.77,3.12-1.18,4.79-1.18M439.8,191.63h0ZM418.37,178.96h0Z"/>
    </g>
  </g>
</svg>