<svg width="75" height="75" viewBox="0 0 75 75" fill="none" xmlns="http://www.w3.org/2000/svg">
<path d="M75 37.5C75 58.2107 58.2107 75 37.5 75C16.7893 75 0 58.2107 0 37.5C0 16.7893 16.7893 0 37.5 0C58.2107 0 75 16.7893 75 37.5Z" fill="#696969"/>
<g clip-path="url(#clip0_6_73)">
<path d="M59.08 26.84C58.8424 25.8908 58.3586 25.0211 57.6773 24.3188C56.996 23.6165 56.1415 23.1064 55.2 22.84C51.76 22 38 22 38 22C38 22 24.24 22 20.8 22.92C19.8585 23.1864 19.004 23.6965 18.3227 24.3988C17.6414 25.1011 17.1576 25.9708 16.92 26.92C16.2904 30.4111 15.9825 33.9526 16 37.5C15.9776 41.0741 16.2855 44.6426 16.92 48.16C17.1819 49.0797 17.6766 49.9163 18.3563 50.589C19.036 51.2616 19.8776 51.7476 20.8 52C24.24 52.92 38 52.92 38 52.92C38 52.92 51.76 52.92 55.2 52C56.1415 51.7336 56.996 51.2235 57.6773 50.5212C58.3586 49.8189 58.8424 48.9492 59.08 48C59.7047 44.5352 60.0127 41.0207 60 37.5C60.0224 33.9259 59.7145 30.3574 59.08 26.84Z" stroke="#1E1E1E" stroke-width="4" stroke-linecap="round" stroke-linejoin="round"/>
<path d="M33.5 44.04L45 37.5L33.5 30.96V44.04Z" stroke="#1E1E1E" stroke-width="4" stroke-linecap="round" stroke-linejoin="round"/>
</g>
<defs>
<clipPath id="clip0_6_73">
<rect width="48" height="48" fill="white" transform="translate(14 14)"/>
</clipPath>
</defs>
</svg>
